<svg version="1.1" xmlns="http://www.w3.org/2000/svg" xmlns:xlink="http://www.w3.org/1999/xlink" width="523" height="64"><defs/><g><g transform="translate(-654,-302) scale(1,1)"><path fill="#C0C0C0" stroke="none" d="M 671 329 L 767 329 L 767 362 L 671 362" opacity="0.2"/></g><g transform="translate(-654,-302) scale(1,1)"><path fill="#C0C0C0" stroke="none" d="M 671 329 L 681 319 L 777 319 L 767 329" opacity="0.2"/></g><g transform="translate(-654,-302) scale(1,1)"><path fill="#C0C0C0" stroke="none" d="M 777 319 L 767 329 L 767 362 L 777 352" opacity="0.2"/></g><g transform="translate(-654,-302) scale(1,1)"><path fill="#ffffff" stroke="none" d="M 664 322 L 760 322 L 760 355 L 664 355"/></g><g transform="translate(-654,-302) scale(1,1)"><path fill="#ffffff" stroke="none" d="M 664 322 L 674 312 L 770 312 L 760 322"/></g><g transform="translate(-654,-302) scale(1,1)"><path fill="#ffffff" stroke="none" d="M 770 312 L 760 322 L 760 355 L 770 345"/></g><g transform="translate(-654,-302) scale(1,1)"><path fill="none" stroke="#000000" d="M 664 322 L 760 322 L 760 355 L 664 355 L 664 322" stroke-miterlimit="10"/></g><g transform="translate(-654,-302) scale(1,1)"><path fill="none" stroke="#000000" d="M 664 322 L 674 312 L 770 312 L 760 322 L 664 322" stroke-miterlimit="10"/></g><g transform="translate(-654,-302) scale(1,1)"><path fill="none" stroke="#000000" d="M 770 312 L 760 322 L 760 355 L 770 345 L 770 312" stroke-miterlimit="10"/></g><g transform="translate(-654,-302) scale(1,1)"><g><path fill="none" stroke="none"/><text fill="#000000" stroke="none" font-family="Arial" font-size="13px" font-style="normal" font-weight="bold" text-decoration="none" x="671.5" y="341.5">Solar Scanner</text></g></g><g transform="translate(-654,-302) scale(1,1)"><path fill="#C0C0C0" stroke="none" d="M 1039 329 L 1163 329 L 1163 362 L 1039 362" opacity="0.2"/></g><g transform="translate(-654,-302) scale(1,1)"><path fill="#C0C0C0" stroke="none" d="M 1039 329 L 1049 319 L 1173 319 L 1163 329" opacity="0.2"/></g><g transform="translate(-654,-302) scale(1,1)"><path fill="#C0C0C0" stroke="none" d="M 1173 319 L 1163 329 L 1163 362 L 1173 352" opacity="0.2"/></g><g transform="translate(-654,-302) scale(1,1)"><path fill="#ffffff" stroke="none" d="M 1032 322 L 1156 322 L 1156 355 L 1032 355"/></g><g transform="translate(-654,-302) scale(1,1)"><path fill="#ffffff" stroke="none" d="M 1032 322 L 1042 312 L 1166 312 L 1156 322"/></g><g transform="translate(-654,-302) scale(1,1)"><path fill="#ffffff" stroke="none" d="M 1166 312 L 1156 322 L 1156 355 L 1166 345"/></g><g transform="translate(-654,-302) scale(1,1)"><path fill="none" stroke="#000000" d="M 1032 322 L 1156 322 L 1156 355 L 1032 355 L 1032 322" stroke-miterlimit="10"/></g><g transform="translate(-654,-302) scale(1,1)"><path fill="none" stroke="#000000" d="M 1032 322 L 1042 312 L 1166 312 L 1156 322 L 1032 322" stroke-miterlimit="10"/></g><g transform="translate(-654,-302) scale(1,1)"><path fill="none" stroke="#000000" d="M 1166 312 L 1156 322 L 1156 355 L 1166 345 L 1166 312" stroke-miterlimit="10"/></g><g transform="translate(-654,-302) scale(1,1)"><g><path fill="none" stroke="none"/><text fill="#000000" stroke="none" font-family="Arial" font-size="13px" font-style="normal" font-weight="bold" text-decoration="none" x="1039" y="341.5">Solar Research DB</text></g></g><g transform="translate(-654,-302) scale(1,1)"><path fill="none" stroke="#000000" d="M 772 334 L 1031 334" stroke-miterlimit="10"/></g><g transform="translate(-654,-302) scale(1,1)"><g><path fill="none" stroke="none"/><text fill="#000000" stroke="none" font-family="Arial" font-size="13px" font-style="normal" font-weight="normal" text-decoration="none" x="880" y="326">+HTTP</text></g></g></g></svg>