<svg version="1.1" xmlns="http://www.w3.org/2000/svg" xmlns:xlink="http://www.w3.org/1999/xlink" width="1474" height="625"><defs/><g><g transform="translate(-30,-30) scale(1,1)"><rect fill="#C0C0C0" stroke="none" x="199" y="335" width="131" height="72" opacity="0.2"/></g><g transform="translate(-30,-30) scale(1,1)"><rect fill="#ffffff" stroke="none" x="192" y="328" width="131" height="72"/></g><g transform="translate(-30,-30) scale(1,1)"><path fill="none" stroke="#000000" d="M 192 328 L 323 328 L 323 400 L 192 400 L 192 328 Z Z" stroke-miterlimit="10"/></g><g transform="translate(-30,-30) scale(1,1)"><path fill="none" stroke="#000000" d="M 192 353 L 323 353" stroke-miterlimit="10"/></g><g transform="translate(-30,-30) scale(1,1)"><path fill="none" stroke="#000000" d="M 192 363 L 323 363" stroke-miterlimit="10"/></g><g transform="translate(-30,-30) scale(1,1)"><g><path fill="none" stroke="none"/><text fill="#000000" stroke="none" font-family="Arial" font-size="13px" font-style="normal" font-weight="bold" text-decoration="none" x="220.5" y="347.5">MotionGuard</text></g></g><g transform="translate(-30,-30) scale(1,1)"><g><path fill="none" stroke="none"/><text fill="#000000" stroke="none" font-family="Arial" font-size="13px" font-style="normal" font-weight="normal" text-decoration="none" x="197" y="380.5">+hasReachedHome()</text></g></g><g transform="translate(-30,-30) scale(1,1)"><g><path fill="none" stroke="none"/><text fill="#000000" stroke="none" font-family="Arial" font-size="13px" font-style="normal" font-weight="normal" text-decoration="none" x="197" y="395.5">+hasReachedAway()</text></g></g><g transform="translate(-30,-30) scale(1,1)"><rect fill="#C0C0C0" stroke="none" x="183" y="47" width="166" height="175" opacity="0.2"/></g><g transform="translate(-30,-30) scale(1,1)"><rect fill="#ffffff" stroke="none" x="176" y="40" width="166" height="175"/></g><g transform="translate(-30,-30) scale(1,1)"><path fill="none" stroke="#000000" d="M 176 40 L 342 40 L 342 215 L 176 215 L 176 40 Z Z" stroke-miterlimit="10"/></g><g transform="translate(-30,-30) scale(1,1)"><path fill="none" stroke="#000000" d="M 176 65 L 342 65" stroke-miterlimit="10"/></g><g transform="translate(-30,-30) scale(1,1)"><path fill="none" stroke="#000000" d="M 176 118 L 342 118" stroke-miterlimit="10"/></g><g transform="translate(-30,-30) scale(1,1)"><g><path fill="none" stroke="none"/><text fill="#000000" stroke="none" font-family="Arial" font-size="13px" font-style="normal" font-weight="bold" text-decoration="none" x="220" y="59.5">rMotorControl</text></g></g><g transform="translate(-30,-30) scale(1,1)"><g><path fill="none" stroke="none"/><text fill="#000000" stroke="none" font-family="Arial" font-size="13px" font-style="normal" font-weight="normal" text-decoration="none" x="181" y="82.5">+controlPort</text></g></g><g transform="translate(-30,-30) scale(1,1)"><g><path fill="none" stroke="none"/><text fill="#000000" stroke="none" font-family="Arial" font-size="13px" font-style="normal" font-weight="normal" text-decoration="none" x="181" y="97.5">+status: MotorControlState</text></g></g><g transform="translate(-30,-30) scale(1,1)"><g><path fill="none" stroke="none"/><text fill="#000000" stroke="none" font-family="Arial" font-size="13px" font-style="normal" font-weight="normal" text-decoration="none" x="181" y="112.5">+holeIndex</text></g></g><g transform="translate(-30,-30) scale(1,1)"><g><path fill="none" stroke="none"/><text fill="#000000" stroke="none" font-family="Arial" font-size="13px" font-style="normal" font-weight="normal" text-decoration="none" x="181" y="135.5">+homeScanner()</text></g></g><g transform="translate(-30,-30) scale(1,1)"><g><path fill="none" stroke="none"/><text fill="#000000" stroke="none" font-family="Arial" font-size="13px" font-style="normal" font-weight="normal" text-decoration="none" x="181" y="150.5">+awayScanner()</text></g></g><g transform="translate(-30,-30) scale(1,1)"><g><path fill="none" stroke="none"/><text fill="#000000" stroke="none" font-family="Arial" font-size="13px" font-style="normal" font-weight="normal" text-decoration="none" x="181" y="165.5">+scanHome()</text></g></g><g transform="translate(-30,-30) scale(1,1)"><g><path fill="none" stroke="none"/><text fill="#000000" stroke="none" font-family="Arial" font-size="13px" font-style="normal" font-weight="normal" text-decoration="none" x="181" y="180.5">+scanAway()</text></g></g><g transform="translate(-30,-30) scale(1,1)"><g><path fill="none" stroke="none"/><text fill="#000000" stroke="none" font-family="Arial" font-size="13px" font-style="normal" font-weight="normal" text-decoration="none" x="181" y="195.5">+stopScanner()</text></g></g><g transform="translate(-30,-30) scale(1,1)"><g><path fill="none" stroke="none"/><text fill="#000000" stroke="none" font-family="Arial" font-size="13px" font-style="normal" font-weight="normal" text-decoration="none" x="181" y="210.5">+loop()</text></g></g><g transform="translate(-30,-30) scale(1,1)"><rect fill="#C0C0C0" stroke="none" x="1095" y="143" width="164.9462890625" height="87" opacity="0.2"/></g><g transform="translate(-30,-30) scale(1,1)"><rect fill="#ffffff" stroke="none" x="1088" y="136" width="164.9462890625" height="87"/></g><g transform="translate(-30,-30) scale(1,1)"><path fill="none" stroke="#000000" d="M 1088 136 L 1252.9462890625 136 L 1252.9462890625 223 L 1088 223 L 1088 136 Z Z" stroke-miterlimit="10"/></g><g transform="translate(-30,-30) scale(1,1)"><path fill="none" stroke="#000000" d="M 1088 161 L 1252.9462890625 161" stroke-miterlimit="10"/></g><g transform="translate(-30,-30) scale(1,1)"><path fill="none" stroke="#000000" d="M 1088 214 L 1252.9462890625 214" stroke-miterlimit="10"/></g><g transform="translate(-30,-30) scale(1,1)"><g><path fill="none" stroke="none"/><text fill="#000000" stroke="none" font-family="Arial" font-size="13px" font-style="normal" font-weight="bold" text-decoration="none" x="1105.47314453125" y="155.5">SensorCaptureArduino</text></g></g><g transform="translate(-30,-30) scale(1,1)"><g><path fill="none" stroke="none"/><text fill="#000000" stroke="none" font-family="Arial" font-size="13px" font-style="normal" font-weight="normal" text-decoration="none" x="1093" y="178.5">+sensorIndex: int</text></g></g><g transform="translate(-30,-30) scale(1,1)"><g><path fill="none" stroke="none"/><text fill="#000000" stroke="none" font-family="Arial" font-size="13px" font-style="normal" font-weight="normal" text-decoration="none" x="1093" y="193.5">+stepIndex: int</text></g></g><g transform="translate(-30,-30) scale(1,1)"><g><path fill="none" stroke="none"/><text fill="#000000" stroke="none" font-family="Arial" font-size="13px" font-style="normal" font-weight="normal" text-decoration="none" x="1093" y="208.5">+state</text></g></g><g transform="translate(-30,-30) scale(1,1)"><rect fill="#C0C0C0" stroke="none" x="359" y="255" width="184" height="100" opacity="0.2"/></g><g transform="translate(-30,-30) scale(1,1)"><rect fill="#ffffff" stroke="none" x="352" y="248" width="184" height="100"/></g><g transform="translate(-30,-30) scale(1,1)"><path fill="none" stroke="#000000" d="M 352 248 L 536 248 L 536 348 L 352 348 L 352 248 Z Z" stroke-miterlimit="10"/></g><g transform="translate(-30,-30) scale(1,1)"><path fill="none" stroke="#000000" d="M 352 273 L 536 273" stroke-miterlimit="10"/></g><g transform="translate(-30,-30) scale(1,1)"><path fill="none" stroke="#000000" d="M 352 326 L 536 326" stroke-miterlimit="10"/></g><g transform="translate(-30,-30) scale(1,1)"><g><path fill="none" stroke="none"/><text fill="#000000" stroke="none" font-family="Arial" font-size="13px" font-style="normal" font-weight="bold" text-decoration="none" x="408" y="267.5">rtWebServer</text></g></g><g transform="translate(-30,-30) scale(1,1)"><g><path fill="none" stroke="none"/><text fill="#000000" stroke="none" font-family="Arial" font-size="13px" font-style="normal" font-weight="normal" text-decoration="none" x="357" y="290.5">+workerPool</text></g></g><g transform="translate(-30,-30) scale(1,1)"><g><path fill="none" stroke="none"/><text fill="#000000" stroke="none" font-family="Arial" font-size="13px" font-style="normal" font-weight="normal" text-decoration="none" x="357" y="305.5">+rootDir</text></g></g><g transform="translate(-30,-30) scale(1,1)"><g><path fill="none" stroke="none"/><text fill="#000000" stroke="none" font-family="Arial" font-size="13px" font-style="normal" font-weight="normal" text-decoration="none" x="357" y="320.5">+taskQueue: rtBlockingQueue</text></g></g><g transform="translate(-30,-30) scale(1,1)"><g><path fill="none" stroke="none"/><text fill="#000000" stroke="none" font-family="Arial" font-size="13px" font-style="normal" font-weight="normal" text-decoration="none" x="357" y="343.5">+run()</text></g></g><g transform="translate(-30,-30) scale(1,1)"><rect fill="#C0C0C0" stroke="none" x="407" y="431" width="89" height="57" opacity="0.2"/></g><g transform="translate(-30,-30) scale(1,1)"><rect fill="#ffffff" stroke="none" x="400" y="424" width="89" height="57"/></g><g transform="translate(-30,-30) scale(1,1)"><path fill="none" stroke="#000000" d="M 400 424 L 489 424 L 489 481 L 400 481 L 400 424 Z Z" stroke-miterlimit="10"/></g><g transform="translate(-30,-30) scale(1,1)"><path fill="none" stroke="#000000" d="M 400 449 L 489 449" stroke-miterlimit="10"/></g><g transform="translate(-30,-30) scale(1,1)"><path fill="none" stroke="#000000" d="M 400 459 L 489 459" stroke-miterlimit="10"/></g><g transform="translate(-30,-30) scale(1,1)"><g><path fill="none" stroke="none"/><text fill="#000000" stroke="none" font-family="Arial" font-size="13px" font-style="normal" font-weight="bold" text-decoration="none" x="407" y="443.5">rtWebWorker</text></g></g><g transform="translate(-30,-30) scale(1,1)"><g><path fill="none" stroke="none"/><text fill="#000000" stroke="none" font-family="Arial" font-size="13px" font-style="normal" font-weight="normal" text-decoration="none" x="405" y="476.5">+run()</text></g></g><g transform="translate(-30,-30) scale(1,1)"><rect fill="#C0C0C0" stroke="none" x="1095" y="567" width="156" height="85" opacity="0.2"/></g><g transform="translate(-30,-30) scale(1,1)"><rect fill="#ffffff" stroke="none" x="1088" y="560" width="156" height="85"/></g><g transform="translate(-30,-30) scale(1,1)"><path fill="none" stroke="#000000" d="M 1088 560 L 1244 560 L 1244 645 L 1088 645 L 1088 560 Z Z" stroke-miterlimit="10"/></g><g transform="translate(-30,-30) scale(1,1)"><path fill="none" stroke="#000000" d="M 1088 585 L 1244 585" stroke-miterlimit="10"/></g><g transform="translate(-30,-30) scale(1,1)"><path fill="none" stroke="#000000" d="M 1088 608 L 1244 608" stroke-miterlimit="10"/></g><g transform="translate(-30,-30) scale(1,1)"><g><path fill="none" stroke="none"/><text fill="#000000" stroke="none" font-family="Arial" font-size="13px" font-style="normal" font-weight="bold" text-decoration="none" x="1114.5" y="579.5">rtImageProcessor</text></g></g><g transform="translate(-30,-30) scale(1,1)"><g><path fill="none" stroke="none"/><text fill="#000000" stroke="none" font-family="Arial" font-size="13px" font-style="normal" font-weight="normal" text-decoration="none" x="1093" y="602.5">+queue: rtBlockingQueue</text></g></g><g transform="translate(-30,-30) scale(1,1)"><g><path fill="none" stroke="none"/><text fill="#000000" stroke="none" font-family="Arial" font-size="13px" font-style="normal" font-weight="normal" text-decoration="none" x="1093" y="625.5">+run()</text></g></g><g transform="translate(-30,-30) scale(1,1)"><g><path fill="none" stroke="none"/><text fill="#000000" stroke="none" font-family="Arial" font-size="13px" font-style="normal" font-weight="normal" text-decoration="none" x="1093" y="640.5">+generateFileName()</text></g></g><g transform="translate(-30,-30) scale(1,1)"><rect fill="#C0C0C0" stroke="none" x="607" y="63" width="233" height="145" opacity="0.2"/></g><g transform="translate(-30,-30) scale(1,1)"><rect fill="#ffffff" stroke="none" x="600" y="56" width="233" height="145"/></g><g transform="translate(-30,-30) scale(1,1)"><path fill="none" stroke="#000000" d="M 600 56 L 833 56 L 833 201 L 600 201 L 600 56 Z Z" stroke-miterlimit="10"/></g><g transform="translate(-30,-30) scale(1,1)"><path fill="none" stroke="#000000" d="M 600 81 L 833 81" stroke-miterlimit="10"/></g><g transform="translate(-30,-30) scale(1,1)"><path fill="none" stroke="#000000" d="M 600 164 L 833 164" stroke-miterlimit="10"/></g><g transform="translate(-30,-30) scale(1,1)"><g><path fill="none" stroke="none"/><text fill="#000000" stroke="none" font-family="Arial" font-size="13px" font-style="normal" font-weight="bold" text-decoration="none" x="702.5" y="75.5">Main</text></g></g><g transform="translate(-30,-30) scale(1,1)"><g><path fill="none" stroke="none"/><text fill="#000000" stroke="none" font-family="Arial" font-size="13px" font-style="normal" font-weight="normal" text-decoration="none" x="605" y="98.5">+guard: MotionGuard</text></g></g><g transform="translate(-30,-30) scale(1,1)"><g><path fill="none" stroke="none"/><text fill="#000000" stroke="none" font-family="Arial" font-size="13px" font-style="normal" font-weight="normal" text-decoration="none" x="605" y="113.5">+motorControl: rMotorControl</text></g></g><g transform="translate(-30,-30) scale(1,1)"><g><path fill="none" stroke="none"/><text fill="#000000" stroke="none" font-family="Arial" font-size="13px" font-style="normal" font-weight="normal" text-decoration="none" x="605" y="128.5">+webServer: rtWebServer</text></g></g><g transform="translate(-30,-30) scale(1,1)"><g><path fill="none" stroke="none"/><text fill="#000000" stroke="none" font-family="Arial" font-size="13px" font-style="normal" font-weight="normal" text-decoration="none" x="605" y="143.5">+sensorComm: SensorCommunicator</text></g></g><g transform="translate(-30,-30) scale(1,1)"><g><path fill="none" stroke="none"/><text fill="#000000" stroke="none" font-family="Arial" font-size="13px" font-style="normal" font-weight="normal" text-decoration="none" x="605" y="158.5">+imageProcessor: rtImageProcessor</text></g></g><g transform="translate(-30,-30) scale(1,1)"><g><path fill="none" stroke="none"/><text fill="#000000" stroke="none" font-family="Arial" font-size="13px" font-style="normal" font-weight="normal" text-decoration="none" x="605" y="181.5">+initial()</text></g></g><g transform="translate(-30,-30) scale(1,1)"><g><path fill="none" stroke="none"/><text fill="#000000" stroke="none" font-family="Arial" font-size="13px" font-style="normal" font-weight="normal" text-decoration="none" x="605" y="196.5">+run()</text></g></g><g transform="translate(-30,-30) scale(1,1)"><path fill="none" stroke="#000000" d="M 343 127 L 599 128" stroke-miterlimit="10"/></g><g transform="translate(-30,-30) scale(1,1)"><path fill="#000000" stroke="none" d="M 588.8209593732621 132.16978799451704 L 599 128 L 588.853845979827 123.75081671389347 L 577.0001678447588 127.91406315564359"/></g><g transform="translate(-30,-30) scale(1,1)"><path fill="none" stroke="#000000" d="M 588.8209593732621 132.16978799451704 L 599 128 L 588.853845979827 123.75081671389347 L 577.0001678447588 127.91406315564359 L 588.8209593732621 132.16978799451704" stroke-miterlimit="10"/></g><g transform="translate(-30,-30) scale(1,1)"><g><path fill="none" stroke="none"/><text fill="#000000" stroke="none" font-family="Arial" font-size="13px" font-style="normal" font-weight="normal" text-decoration="none" x="430" y="119">+motorControl</text></g></g><g transform="translate(-30,-30) scale(1,1)"><path fill="none" stroke="#000000" d="M 526 247 L 599 201" stroke-miterlimit="10"/></g><g transform="translate(-30,-30) scale(1,1)"><path fill="#000000" stroke="none" d="M 592.6461589518724 209.9793487478285 L 599 201 L 588.157797518059 202.85651429851603 L 580.3871366071654 212.7286536447999"/></g><g transform="translate(-30,-30) scale(1,1)"><path fill="none" stroke="#000000" d="M 592.6461589518724 209.9793487478285 L 599 201 L 588.157797518059 202.85651429851603 L 580.3871366071654 212.7286536447999 L 592.6461589518724 209.9793487478285" stroke-miterlimit="10"/></g><g transform="translate(-30,-30) scale(1,1)"><g><path fill="none" stroke="none"/><text fill="#000000" stroke="none" font-family="Arial" font-size="13px" font-style="normal" font-weight="normal" text-decoration="none" x="520" y="218">+webServer</text></g></g><g transform="translate(-30,-30) scale(1,1)"><path fill="none" stroke="#000000" d="M 444 423 L 444 349" stroke-miterlimit="10"/></g><g transform="translate(-30,-30) scale(1,1)"><path fill="#FFFFFF" stroke="none" d="M 448.209517756016 359.16267485762415 L 444 349 L 439.790482243984 359.16267485762415 L 444 371"/></g><g transform="translate(-30,-30) scale(1,1)"><path fill="none" stroke="#000000" d="M 448.209517756016 359.16267485762415 L 444 349 L 439.790482243984 359.16267485762415 L 444 371 L 448.209517756016 359.16267485762415" stroke-miterlimit="10"/></g><g transform="translate(-30,-30) scale(1,1)"><g><path fill="none" stroke="none"/><text fill="#000000" stroke="none" font-family="Arial" font-size="13px" font-style="normal" font-weight="normal" text-decoration="none" x="393" y="392">+workerPool</text></g></g><g transform="translate(-30,-30) scale(1,1)"><path fill="none" stroke="#000000" d="M 1141 559 L 968 256 L 834 188" stroke-miterlimit="10"/></g><g transform="translate(-30,-30) scale(1,1)"><path fill="#000000" stroke="none" d="M 844.9674904619835 188.84507571631246 L 834 188 L 841.1576281086467 196.35274564788793 L 853.6184869702249 197.95565010429326"/></g><g transform="translate(-30,-30) scale(1,1)"><path fill="none" stroke="#000000" d="M 844.9674904619835 188.84507571631246 L 834 188 L 841.1576281086467 196.35274564788793 L 853.6184869702249 197.95565010429326 L 844.9674904619835 188.84507571631246" stroke-miterlimit="10"/></g><g transform="translate(-30,-30) scale(1,1)"><g><path fill="none" stroke="none"/><text fill="#000000" stroke="none" font-family="Arial" font-size="13px" font-style="normal" font-weight="normal" text-decoration="none" x="925" y="253">+imageProcessor</text></g></g><g transform="translate(-30,-30) scale(1,1)"><path fill="none" stroke="#000000" d="M 257 327 L 258 216" stroke-miterlimit="10"/></g><g transform="translate(-30,-30) scale(1,1)"><path fill="#000000" stroke="none" d="M 262.1177950253176 226.20018451448155 L 258 216 L 253.6991011463944 226.12434042548225 L 257.80180984441745 237.99910726966505"/></g><g transform="translate(-30,-30) scale(1,1)"><path fill="none" stroke="#000000" d="M 262.1177950253176 226.20018451448155 L 258 216 L 253.6991011463944 226.12434042548225 L 257.80180984441745 237.99910726966505 L 262.1177950253176 226.20018451448155" stroke-miterlimit="10"/></g><g transform="translate(-30,-30) scale(1,1)"><g><path fill="none" stroke="none"/><text fill="#000000" stroke="none" font-family="Arial" font-size="13px" font-style="normal" font-weight="normal" text-decoration="none" x="222" y="277">+guard</text></g></g><g transform="translate(-30,-30) scale(1,1)"><rect fill="#C0C0C0" stroke="none" x="639" y="351" width="269" height="177" opacity="0.2"/></g><g transform="translate(-30,-30) scale(1,1)"><rect fill="#ffffff" stroke="none" x="632" y="344" width="269" height="177"/></g><g transform="translate(-30,-30) scale(1,1)"><path fill="none" stroke="#000000" d="M 632 344 L 901 344 L 901 521 L 632 521 L 632 344 Z Z" stroke-miterlimit="10"/></g><g transform="translate(-30,-30) scale(1,1)"><path fill="none" stroke="#000000" d="M 632 369 L 901 369" stroke-miterlimit="10"/></g><g transform="translate(-30,-30) scale(1,1)"><path fill="none" stroke="#000000" d="M 632 379 L 901 379" stroke-miterlimit="10"/></g><g transform="translate(-30,-30) scale(1,1)"><g><path fill="none" stroke="none"/><text fill="#000000" stroke="none" font-family="Arial" font-size="13px" font-style="normal" font-weight="bold" text-decoration="none" x="748" y="363.5">rtTask</text></g></g><g transform="translate(-30,-30) scale(1,1)"><g><path fill="none" stroke="none"/><text fill="#000000" stroke="none" font-family="Arial" font-size="13px" font-style="normal" font-weight="normal" text-decoration="none" x="637" y="396.5">+Task(taskname: char*, priority: int)</text></g></g><g transform="translate(-30,-30) scale(1,1)"><g><path fill="none" stroke="none"/><text fill="#000000" stroke="none" font-family="Arial" font-size="13px" font-style="italic" font-weight="normal" text-decoration="none" x="637" y="411.5">+run(void* args)</text></g></g><g transform="translate(-30,-30) scale(1,1)"><g><path fill="none" stroke="none"/><text fill="#000000" stroke="none" font-family="Arial" font-size="13px" font-style="normal" font-weight="normal" text-decoration="none" x="637" y="426.5">+bool start(void* args)</text></g></g><g transform="translate(-30,-30) scale(1,1)"><g><path fill="none" stroke="none"/><text fill="#000000" stroke="none" font-family="Arial" font-size="13px" font-style="normal" font-weight="normal" text-decoration="none" x="637" y="441.5">+bool startPeriodic(periodClockTicks: size_t)</text></g></g><g transform="translate(-30,-30) scale(1,1)"><g><path fill="none" stroke="none"/><text fill="#000000" stroke="none" font-family="Arial" font-size="13px" font-style="normal" font-weight="normal" text-decoration="none" x="637" y="456.5">+void waitForNextPeriod()</text></g></g><g transform="translate(-30,-30) scale(1,1)"><g><path fill="none" stroke="none"/><text fill="#000000" stroke="none" font-family="Arial" font-size="13px" font-style="normal" font-weight="normal" text-decoration="none" x="637" y="471.5">+void yeild()</text></g></g><g transform="translate(-30,-30) scale(1,1)"><g><path fill="none" stroke="none"/><text fill="#000000" stroke="none" font-family="Arial" font-size="13px" font-style="normal" font-weight="normal" text-decoration="none" x="637" y="486.5">+void waitForClockTicks(ticks: size_t)</text></g></g><g transform="translate(-30,-30) scale(1,1)"><g><path fill="none" stroke="none"/><text fill="#000000" stroke="none" font-family="Arial" font-size="13px" font-style="normal" font-weight="normal" text-decoration="none" x="637" y="501.5">+void kill()</text></g></g><g transform="translate(-30,-30) scale(1,1)"><g><path fill="none" stroke="none"/><text fill="#000000" stroke="none" font-family="Arial" font-size="13px" font-style="normal" font-weight="normal" text-decoration="none" x="637" y="516.5">+void join()</text></g></g><g transform="translate(-30,-30) scale(1,1)"><path fill="none" stroke="#000000" d="M 1087 568 L 902 490" stroke-miterlimit="10"/></g><g transform="translate(-30,-30) scale(1,1)"><path fill="#FFFFFF" stroke="none" d="M 923.9995625000355 490.1387436738506 L 902 490 L 917.4579332342859 505.65414641953885"/></g><g transform="translate(-30,-30) scale(1,1)"><path fill="none" stroke="#000000" d="M 923.9995625000355 490.1387436738506 L 902 490 L 917.4579332342859 505.65414641953885 L 923.9995625000355 490.1387436738506" stroke-miterlimit="10"/></g><g transform="translate(-30,-30) scale(1,1)"><path fill="none" stroke="#000000" d="M 537 337 L 631 376" stroke-miterlimit="10"/></g><g transform="translate(-30,-30) scale(1,1)"><path fill="#FFFFFF" stroke="none" d="M 609.0000037045271 375.9872328869028 L 631 376 L 615.4526811456393 360.434625721145"/></g><g transform="translate(-30,-30) scale(1,1)"><path fill="none" stroke="#000000" d="M 609.0000037045271 375.9872328869028 L 631 376 L 615.4526811456393 360.434625721145 L 609.0000037045271 375.9872328869028" stroke-miterlimit="10"/></g><g transform="translate(-30,-30) scale(1,1)"><rect fill="#C0C0C0" stroke="none" x="1063" y="319" width="220.8212890625" height="70" opacity="0.2"/></g><g transform="translate(-30,-30) scale(1,1)"><rect fill="#ffffff" stroke="none" x="1056" y="312" width="220.8212890625" height="70"/></g><g transform="translate(-30,-30) scale(1,1)"><path fill="none" stroke="#000000" d="M 1056 312 L 1276.8212890625 312 L 1276.8212890625 382 L 1056 382 L 1056 312 Z Z" stroke-miterlimit="10"/></g><g transform="translate(-30,-30) scale(1,1)"><path fill="none" stroke="#000000" d="M 1056 337 L 1276.8212890625 337" stroke-miterlimit="10"/></g><g transform="translate(-30,-30) scale(1,1)"><path fill="none" stroke="#000000" d="M 1056 360 L 1276.8212890625 360" stroke-miterlimit="10"/></g><g transform="translate(-30,-30) scale(1,1)"><g><path fill="none" stroke="none"/><text fill="#000000" stroke="none" font-family="Arial" font-size="13px" font-style="normal" font-weight="bold" text-decoration="none" x="1067.91064453125" y="331.5">rtSensorToImageProcessorQueue</text></g></g><g transform="translate(-30,-30) scale(1,1)"><g><path fill="none" stroke="none"/><text fill="#000000" stroke="none" font-family="Arial" font-size="13px" font-style="normal" font-weight="normal" text-decoration="none" x="1061" y="354.5">+queue: rtBlockingQueue</text></g></g><g transform="translate(-30,-30) scale(1,1)"><g><path fill="none" stroke="none"/><text fill="#000000" stroke="none" font-family="Arial" font-size="13px" font-style="normal" font-weight="normal" text-decoration="none" x="1061" y="377.5">+run()</text></g></g><g transform="translate(-30,-30) scale(1,1)"><g><path fill="none" stroke="none"/><text fill="#000000" stroke="none" font-family="Arial" font-size="13px" font-style="normal" font-weight="normal" text-decoration="none" x="1189" y="258">Sensor Serial Data Format:</text></g></g><g transform="translate(-30,-30) scale(1,1)"><g><path fill="none" stroke="none"/><text fill="#000000" stroke="none" font-family="Arial" font-size="13px" font-style="normal" font-weight="normal" text-decoration="none" x="1189" y="273">x,y,value</text></g></g><g transform="translate(-30,-30) scale(1,1)"><g><path fill="none" stroke="none"/><text fill="#000000" stroke="none" font-family="Arial" font-size="13px" font-style="normal" font-weight="normal" text-decoration="none" x="1189" y="288">x,y,value...</text></g></g><g transform="translate(-30,-30) scale(1,1)"><path fill="none" stroke="#000000" d="M 1167 311 L 1169 224" stroke-miterlimit="10"/></g><g transform="translate(-30,-30) scale(1,1)"><g><path fill="none" stroke="none"/><text fill="#000000" stroke="none" font-family="Arial" font-size="13px" font-style="normal" font-weight="normal" text-decoration="none" x="1095" y="234">+Serial Link</text></g></g><g transform="translate(-30,-30) scale(1,1)"><rect fill="#C0C0C0" stroke="none" x="639" y="559" width="298" height="87" opacity="0.2"/></g><g transform="translate(-30,-30) scale(1,1)"><rect fill="#ffffff" stroke="none" x="632" y="552" width="298" height="87"/></g><g transform="translate(-30,-30) scale(1,1)"><path fill="none" stroke="#000000" d="M 632 552 L 930 552 L 930 639 L 632 639 L 632 552 Z Z" stroke-miterlimit="10"/></g><g transform="translate(-30,-30) scale(1,1)"><path fill="none" stroke="#000000" d="M 632 577 L 930 577" stroke-miterlimit="10"/></g><g transform="translate(-30,-30) scale(1,1)"><path fill="none" stroke="#000000" d="M 632 587 L 930 587" stroke-miterlimit="10"/></g><g transform="translate(-30,-30) scale(1,1)"><g><path fill="none" stroke="none"/><text fill="#000000" stroke="none" font-family="Arial" font-size="13px" font-style="normal" font-weight="bold" text-decoration="none" x="733" y="571.5">rtBlockingQueue</text></g></g><g transform="translate(-30,-30) scale(1,1)"><g><path fill="none" stroke="none"/><text fill="#000000" stroke="none" font-family="Arial" font-size="13px" font-style="normal" font-weight="normal" text-decoration="none" x="637" y="604.5">+take(): T</text></g></g><g transform="translate(-30,-30) scale(1,1)"><g><path fill="none" stroke="none"/><text fill="#000000" stroke="none" font-family="Arial" font-size="13px" font-style="normal" font-weight="normal" text-decoration="none" x="637" y="619.5">+put(value: T)</text></g></g><g transform="translate(-30,-30) scale(1,1)"><g><path fill="none" stroke="none"/><text fill="#000000" stroke="none" font-family="Arial" font-size="13px" font-style="normal" font-weight="normal" text-decoration="none" x="637" y="634.5">+rtBlockingQueue(name: const char*, size size_t)</text></g></g><g transform="translate(-30,-30) scale(1,1)"><rect fill="#C0C0C0" stroke="none" x="47" y="47" width="122" height="150" opacity="0.2"/></g><g transform="translate(-30,-30) scale(1,1)"><rect fill="#ffffff" stroke="none" x="40" y="40" width="122" height="150"/></g><g transform="translate(-30,-30) scale(1,1)"><path fill="none" stroke="#000000" d="M 40 40 L 162 40 L 162 190 L 40 190 L 40 40 Z Z" stroke-miterlimit="10"/></g><g transform="translate(-30,-30) scale(1,1)"><path fill="none" stroke="#000000" d="M 40 78 L 162 78" stroke-miterlimit="10"/></g><g transform="translate(-30,-30) scale(1,1)"><g><path fill="none" stroke="none"/><text fill="#000000" stroke="none" font-family="Arial" font-size="13px" font-style="normal" font-weight="normal" text-decoration="none" x="58.5" y="57.5">«enumeration»</text></g></g><g transform="translate(-30,-30) scale(1,1)"><g><path fill="none" stroke="none"/><text fill="#000000" stroke="none" font-family="Arial" font-size="13px" font-style="normal" font-weight="bold" text-decoration="none" x="48.5" y="72.5">MotorControlState</text></g></g><g transform="translate(-30,-30) scale(1,1)"><g><path fill="none" stroke="none"/><text fill="#000000" stroke="none" font-family="Arial" font-size="13px" font-style="normal" font-weight="normal" text-decoration="none" x="45" y="95.5">HOMING</text></g></g><g transform="translate(-30,-30) scale(1,1)"><g><path fill="none" stroke="none"/><text fill="#000000" stroke="none" font-family="Arial" font-size="13px" font-style="normal" font-weight="normal" text-decoration="none" x="45" y="110.5">AWAYING</text></g></g><g transform="translate(-30,-30) scale(1,1)"><g><path fill="none" stroke="none"/><text fill="#000000" stroke="none" font-family="Arial" font-size="13px" font-style="normal" font-weight="normal" text-decoration="none" x="45" y="125.5">HOMING_SCAN</text></g></g><g transform="translate(-30,-30) scale(1,1)"><g><path fill="none" stroke="none"/><text fill="#000000" stroke="none" font-family="Arial" font-size="13px" font-style="normal" font-weight="normal" text-decoration="none" x="45" y="140.5">AWAYING_SCAN</text></g></g><g transform="translate(-30,-30) scale(1,1)"><g><path fill="none" stroke="none"/><text fill="#000000" stroke="none" font-family="Arial" font-size="13px" font-style="normal" font-weight="normal" text-decoration="none" x="45" y="155.5">UNKNOWN</text></g></g><g transform="translate(-30,-30) scale(1,1)"><g><path fill="none" stroke="none"/><text fill="#000000" stroke="none" font-family="Arial" font-size="13px" font-style="normal" font-weight="normal" text-decoration="none" x="45" y="170.5">HOME</text></g></g><g transform="translate(-30,-30) scale(1,1)"><g><path fill="none" stroke="none"/><text fill="#000000" stroke="none" font-family="Arial" font-size="13px" font-style="normal" font-weight="normal" text-decoration="none" x="45" y="185.5">AWAY</text></g></g><g transform="translate(-30,-30) scale(1,1)"><path fill="none" stroke="#000000" d="M 728 202 L 751 343" stroke-miterlimit="10"/></g><g transform="translate(-30,-30) scale(1,1)"><path fill="#FFFFFF" stroke="none" d="M 739.4185517989129 324.2951862461682 L 751 343 L 756.0369800872163 321.5843787948846"/></g><g transform="translate(-30,-30) scale(1,1)"><path fill="none" stroke="#000000" d="M 739.4185517989129 324.2951862461682 L 751 343 L 756.0369800872163 321.5843787948846 L 739.4185517989129 324.2951862461682" stroke-miterlimit="10"/></g><g transform="translate(-30,-30) scale(1,1)"><path fill="none" stroke="#000000" d="M 1055 371 L 902 403" stroke-miterlimit="10"/></g><g transform="translate(-30,-30) scale(1,1)"><path fill="#FFFFFF" stroke="none" d="M 920.1713177705567 390.5982577642715 L 902 403 L 923.6184180520675 407.079705985245"/></g><g transform="translate(-30,-30) scale(1,1)"><path fill="none" stroke="#000000" d="M 920.1713177705567 390.5982577642715 L 902 403 L 923.6184180520675 407.079705985245 L 920.1713177705567 390.5982577642715" stroke-miterlimit="10"/></g><g transform="translate(-30,-30) scale(1,1)"><path fill="none" stroke="#000000" d="M 1166 559 L 1166 383" stroke-miterlimit="10"/></g><g transform="translate(-30,-30) scale(1,1)"><g><path fill="none" stroke="none"/><text fill="#000000" stroke="none" font-family="Arial" font-size="13px" font-style="normal" font-weight="normal" text-decoration="none" x="1130" y="477">+queue</text></g></g><g transform="translate(-30,-30) scale(1,1)"><rect fill="#C0C0C0" stroke="none" x="1319" y="143" width="182" height="90" opacity="0.2"/></g><g transform="translate(-30,-30) scale(1,1)"><rect fill="#ffffff" stroke="none" x="1312" y="136" width="182" height="90"/></g><g transform="translate(-30,-30) scale(1,1)"><path fill="none" stroke="#000000" d="M 1312 136 L 1494 136 L 1494 226 L 1312 226 L 1312 136 Z Z" stroke-miterlimit="10"/></g><g transform="translate(-30,-30) scale(1,1)"><path fill="none" stroke="#000000" d="M 1312 174 L 1494 174" stroke-miterlimit="10"/></g><g transform="translate(-30,-30) scale(1,1)"><g><path fill="none" stroke="none"/><text fill="#000000" stroke="none" font-family="Arial" font-size="13px" font-style="normal" font-weight="normal" text-decoration="none" x="1360.5" y="153.5">«enumeration»</text></g></g><g transform="translate(-30,-30) scale(1,1)"><g><path fill="none" stroke="none"/><text fill="#000000" stroke="none" font-family="Arial" font-size="13px" font-style="normal" font-weight="bold" text-decoration="none" x="1322.5" y="168.5">SensorCaptureArduinoState</text></g></g><g transform="translate(-30,-30) scale(1,1)"><g><path fill="none" stroke="none"/><text fill="#000000" stroke="none" font-family="Arial" font-size="13px" font-style="normal" font-weight="normal" text-decoration="none" x="1317" y="191.5">WAITING</text></g></g><g transform="translate(-30,-30) scale(1,1)"><g><path fill="none" stroke="none"/><text fill="#000000" stroke="none" font-family="Arial" font-size="13px" font-style="normal" font-weight="normal" text-decoration="none" x="1317" y="206.5">SCANNING_ROW</text></g></g><g transform="translate(-30,-30) scale(1,1)"><g><path fill="none" stroke="none"/><text fill="#000000" stroke="none" font-family="Arial" font-size="13px" font-style="normal" font-weight="normal" text-decoration="none" x="1317" y="221.5">WAITING_FOR_ROW</text></g></g></g></svg>