<svg version="1.1" xmlns="http://www.w3.org/2000/svg" xmlns:xlink="http://www.w3.org/1999/xlink" width="483" height="427"><defs/><g><g transform="translate(-86,-142) scale(1,1)"><path fill="#C0C0C0" stroke="none" d="M 119 168.5 C 119 163.2532944 123.2532944 159 128.5 159 C 133.7467056 159 138 163.2532944 138 168.5 C 138 173.7467056 133.7467056 178 128.5 178 C 123.2532944 178 119 173.7467056 119 168.5 Z" opacity="0.2"/></g><g transform="translate(-86,-142) scale(1,1)"><path fill="#000000" stroke="none" d="M 112 161.5 C 112 156.2532944 116.2532944 152 121.5 152 C 126.7467056 152 131 156.2532944 131 161.5 C 131 166.7467056 126.7467056 171 121.5 171 C 116.2532944 171 112 166.7467056 112 161.5 Z"/></g><g transform="translate(-86,-142) scale(1,1)"><path fill="#C0C0C0" stroke="none" d="M 249 223 L 288 223 Q 298 223 298 233 L 298 252 Q 298 262 288 262 L 249 262 Q 239 262 239 252 L 239 233 Q 239 223 249 223 Z" opacity="0.2"/></g><g transform="translate(-86,-142) scale(1,1)"><path fill="#ffffff" stroke="none" d="M 242 216 L 281 216 Q 291 216 291 226 L 291 245 Q 291 255 281 255 L 242 255 Q 232 255 232 245 L 232 226 Q 232 216 242 216 Z"/></g><g transform="translate(-86,-142) scale(1,1)"><path fill="none" stroke="#000000" d="M 242 216 L 281 216 Q 291 216 291 226 L 291 245 Q 291 255 281 255 L 242 255 Q 232 255 232 245 L 232 226 Q 232 216 242 216 Z" stroke-miterlimit="10"/></g><g transform="translate(-86,-142) scale(1,1)"><g><path fill="none" stroke="none"/><text fill="#000000" stroke="none" font-family="Arial" font-size="13px" font-style="normal" font-weight="bold" text-decoration="none" x="245.5" y="235.5">home</text></g></g><g transform="translate(-86,-142) scale(1,1)"><path fill="#C0C0C0" stroke="none" d="M 473 215 L 542 215 Q 552 215 552 225 L 552 244 Q 552 254 542 254 L 473 254 Q 463 254 463 244 L 463 225 Q 463 215 473 215 Z" opacity="0.2"/></g><g transform="translate(-86,-142) scale(1,1)"><path fill="#ffffff" stroke="none" d="M 466 208 L 535 208 Q 545 208 545 218 L 545 237 Q 545 247 535 247 L 466 247 Q 456 247 456 237 L 456 218 Q 456 208 466 208 Z"/></g><g transform="translate(-86,-142) scale(1,1)"><path fill="none" stroke="#000000" d="M 466 208 L 535 208 Q 545 208 545 218 L 545 237 Q 545 247 535 247 L 466 247 Q 456 247 456 237 L 456 218 Q 456 208 466 208 Z" stroke-miterlimit="10"/></g><g transform="translate(-86,-142) scale(1,1)"><g><path fill="none" stroke="none"/><text fill="#000000" stroke="none" font-family="Arial" font-size="13px" font-style="normal" font-weight="bold" text-decoration="none" x="463.5" y="227.5">scanForward</text></g></g><g transform="translate(-86,-142) scale(1,1)"><path fill="#C0C0C0" stroke="none" d="M 265 319 L 343 319 Q 353 319 353 329 L 353 348 Q 353 358 343 358 L 265 358 Q 255 358 255 348 L 255 329 Q 255 319 265 319 Z" opacity="0.2"/></g><g transform="translate(-86,-142) scale(1,1)"><path fill="#ffffff" stroke="none" d="M 258 312 L 336 312 Q 346 312 346 322 L 346 341 Q 346 351 336 351 L 258 351 Q 248 351 248 341 L 248 322 Q 248 312 258 312 Z"/></g><g transform="translate(-86,-142) scale(1,1)"><path fill="none" stroke="#000000" d="M 258 312 L 336 312 Q 346 312 346 322 L 346 341 Q 346 351 336 351 L 258 351 Q 248 351 248 341 L 248 322 Q 248 312 258 312 Z" stroke-miterlimit="10"/></g><g transform="translate(-86,-142) scale(1,1)"><g><path fill="none" stroke="none"/><text fill="#000000" stroke="none" font-family="Arial" font-size="13px" font-style="normal" font-weight="bold" text-decoration="none" x="254.5" y="331.5">scanBackward</text></g></g><g transform="translate(-86,-142) scale(1,1)"><path fill="#C0C0C0" stroke="none" d="M 505 303 L 544 303 Q 554 303 554 313 L 554 332 Q 554 342 544 342 L 505 342 Q 495 342 495 332 L 495 313 Q 495 303 505 303 Z" opacity="0.2"/></g><g transform="translate(-86,-142) scale(1,1)"><path fill="#ffffff" stroke="none" d="M 498 296 L 537 296 Q 547 296 547 306 L 547 325 Q 547 335 537 335 L 498 335 Q 488 335 488 325 L 488 306 Q 488 296 498 296 Z"/></g><g transform="translate(-86,-142) scale(1,1)"><path fill="none" stroke="#000000" d="M 498 296 L 537 296 Q 547 296 547 306 L 547 325 Q 547 335 537 335 L 498 335 Q 488 335 488 325 L 488 306 Q 488 296 498 296 Z" stroke-miterlimit="10"/></g><g transform="translate(-86,-142) scale(1,1)"><g><path fill="none" stroke="none"/><text fill="#000000" stroke="none" font-family="Arial" font-size="13px" font-style="normal" font-weight="bold" text-decoration="none" x="502.5" y="315.5">away</text></g></g><g transform="translate(-86,-142) scale(1,1)"><path fill="none" stroke="#000000" d="M 132 167 L 231 219" stroke-miterlimit="10"/></g><g transform="translate(-86,-142) scale(1,1)"><path fill="none" stroke="#000000" d="M 220.0454599764386 218.00097403827957 L 231 219 L 223.96038849667423 210.54755243244637" stroke-miterlimit="10"/></g><g transform="translate(-86,-142) scale(1,1)"><g><path fill="none" stroke="none"/><text fill="#000000" stroke="none" font-family="Arial" font-size="13px" font-style="normal" font-weight="normal" text-decoration="none" x="149" y="186">homeContact</text></g></g><g transform="translate(-86,-142) scale(1,1)"><path fill="none" stroke="#000000" d="M 292 234 L 455 229" stroke-miterlimit="10"/></g><g transform="translate(-86,-142) scale(1,1)"><path fill="none" stroke="#000000" d="M 444.97116863997354 233.51913061906262 L 455 229 L 444.713037432142 225.1040532437559" stroke-miterlimit="10"/></g><g transform="translate(-86,-142) scale(1,1)"><g><path fill="none" stroke="none"/><text fill="#000000" stroke="none" font-family="Arial" font-size="13px" font-style="normal" font-weight="normal" text-decoration="none" x="344" y="223">scanStart</text></g></g><g transform="translate(-86,-142) scale(1,1)"><path fill="none" stroke="#000000" d="M 504 248 L 513 295" stroke-miterlimit="10"/></g><g transform="translate(-86,-142) scale(1,1)"><path fill="none" stroke="#000000" d="M 506.95428294281464 285.8103696883684 L 513 295 L 515.2230823816813 284.22698256177694" stroke-miterlimit="10"/></g><g transform="translate(-86,-142) scale(1,1)"><g><path fill="none" stroke="none"/><text fill="#000000" stroke="none" font-family="Arial" font-size="13px" font-style="normal" font-weight="normal" text-decoration="none" x="485" y="274">awayContact</text></g></g><g transform="translate(-86,-142) scale(1,1)"><path fill="none" stroke="#000000" d="M 487 317 L 347 327" stroke-miterlimit="10"/></g><g transform="translate(-86,-142) scale(1,1)"><path fill="none" stroke="#000000" d="M 356.83693272830044 322.0771192885779 L 347 327 L 357.4367641722761 330.4747595042381" stroke-miterlimit="10"/></g><g transform="translate(-86,-142) scale(1,1)"><g><path fill="none" stroke="none"/><text fill="#000000" stroke="none" font-family="Arial" font-size="13px" font-style="normal" font-weight="normal" text-decoration="none" x="368" y="343">reverseScanStart</text></g></g><g transform="translate(-86,-142) scale(1,1)"><path fill="none" stroke="#000000" d="M 290 311 L 269 256" stroke-miterlimit="10"/></g><g transform="translate(-86,-142) scale(1,1)"><path fill="none" stroke="#000000" d="M 276.55765091734344 263.9926161306282 L 269 256 L 268.6924331481061 266.99569927888246" stroke-miterlimit="10"/></g><g transform="translate(-86,-142) scale(1,1)"><g><path fill="none" stroke="none"/><text fill="#000000" stroke="none" font-family="Arial" font-size="13px" font-style="normal" font-weight="normal" text-decoration="none" x="226" y="295">homeContact</text></g></g><g transform="translate(-86,-142) scale(1,1)"><path fill="#C0C0C0" stroke="none" d="M 113 511 L 211 511 Q 221 511 221 521 L 221 540 Q 221 550 211 550 L 113 550 Q 103 550 103 540 L 103 521 Q 103 511 113 511 Z" opacity="0.2"/></g><g transform="translate(-86,-142) scale(1,1)"><path fill="#ffffff" stroke="none" d="M 106 504 L 204 504 Q 214 504 214 514 L 214 533 Q 214 543 204 543 L 106 543 Q 96 543 96 533 L 96 514 Q 96 504 106 504 Z"/></g><g transform="translate(-86,-142) scale(1,1)"><path fill="none" stroke="#000000" d="M 106 504 L 204 504 Q 214 504 214 514 L 214 533 Q 214 543 204 543 L 106 543 Q 96 543 96 533 L 96 514 Q 96 504 106 504 Z" stroke-miterlimit="10"/></g><g transform="translate(-86,-142) scale(1,1)"><g><path fill="none" stroke="none"/><text fill="#000000" stroke="none" font-family="Arial" font-size="13px" font-style="normal" font-weight="bold" text-decoration="none" x="106" y="523.5">unknownPosition</text></g></g><g transform="translate(-86,-142) scale(1,1)"><path fill="none" stroke="#000000" d="M 122 172 L 153 503" stroke-miterlimit="10"/></g><g transform="translate(-86,-142) scale(1,1)"><path fill="none" stroke="#000000" d="M 147.8611789866759 493.2741314735897 L 153 503 L 156.24353240212815 492.48907722622107" stroke-miterlimit="10"/></g><g transform="translate(-86,-142) scale(1,1)"><path fill="#C0C0C0" stroke="none" d="M 433 527 L 514 527 Q 524 527 524 537 L 524 556 Q 524 566 514 566 L 433 566 Q 423 566 423 556 L 423 537 Q 423 527 433 527 Z" opacity="0.2"/></g><g transform="translate(-86,-142) scale(1,1)"><path fill="#ffffff" stroke="none" d="M 426 520 L 507 520 Q 517 520 517 530 L 517 549 Q 517 559 507 559 L 426 559 Q 416 559 416 549 L 416 530 Q 416 520 426 520 Z"/></g><g transform="translate(-86,-142) scale(1,1)"><path fill="none" stroke="#000000" d="M 426 520 L 507 520 Q 517 520 517 530 L 517 549 Q 517 559 507 559 L 426 559 Q 416 559 416 549 L 416 530 Q 416 520 426 520 Z" stroke-miterlimit="10"/></g><g transform="translate(-86,-142) scale(1,1)"><g><path fill="none" stroke="none"/><text fill="#000000" stroke="none" font-family="Arial" font-size="13px" font-style="normal" font-weight="bold" text-decoration="none" x="424" y="539.5">validHoleIndex</text></g></g><g transform="translate(-86,-142) scale(1,1)"><path fill="none" stroke="#000000" d="M 215 526 L 415 536" stroke-miterlimit="10"/></g><g transform="translate(-86,-142) scale(1,1)"><path fill="none" stroke="#000000" d="M 404.63979143147435 539.6967659402035 L 415 536 L 405.06021800191127 531.2882345314658" stroke-miterlimit="10"/></g><g transform="translate(-86,-142) scale(1,1)"><g><path fill="none" stroke="none"/><text fill="#000000" stroke="none" font-family="Arial" font-size="13px" font-style="normal" font-weight="normal" text-decoration="none" x="277" y="523">homeContact</text></g></g></g></svg>