<svg version="1.1" xmlns="http://www.w3.org/2000/svg" xmlns:xlink="http://www.w3.org/1999/xlink" width="464" height="272"><defs/><g><g transform="translate(-92,-121) scale(1,1)"><path fill="#C0C0C0" stroke="none" d="M 109 147.5 C 109 142.2532944 113.2532944 138 118.5 138 C 123.7467056 138 128 142.2532944 128 147.5 C 128 152.7467056 123.7467056 157 118.5 157 C 113.2532944 157 109 152.7467056 109 147.5 Z" opacity="0.2"/></g><g transform="translate(-92,-121) scale(1,1)"><path fill="#000000" stroke="none" d="M 102 140.5 C 102 135.2532944 106.2532944 131 111.5 131 C 116.7467056 131 121 135.2532944 121 140.5 C 121 145.7467056 116.7467056 150 111.5 150 C 106.2532944 150 102 145.7467056 102 140.5 Z"/></g><g transform="translate(-92,-121) scale(1,1)"><path fill="#C0C0C0" stroke="none" d="M 273 255 L 312 255 Q 322 255 322 265 L 322 284 Q 322 294 312 294 L 273 294 Q 263 294 263 284 L 263 265 Q 263 255 273 255 Z" opacity="0.2"/></g><g transform="translate(-92,-121) scale(1,1)"><path fill="#ffffff" stroke="none" d="M 266 248 L 305 248 Q 315 248 315 258 L 315 277 Q 315 287 305 287 L 266 287 Q 256 287 256 277 L 256 258 Q 256 248 266 248 Z"/></g><g transform="translate(-92,-121) scale(1,1)"><path fill="none" stroke="#000000" d="M 266 248 L 305 248 Q 315 248 315 258 L 315 277 Q 315 287 305 287 L 266 287 Q 256 287 256 277 L 256 258 Q 256 248 266 248 Z" stroke-miterlimit="10"/></g><g transform="translate(-92,-121) scale(1,1)"><g><path fill="none" stroke="none"/><text fill="#000000" stroke="none" font-family="Arial" font-size="13px" font-style="normal" font-weight="bold" text-decoration="none" x="275.5" y="267.5">idle</text></g></g><g transform="translate(-92,-121) scale(1,1)"><path fill="#C0C0C0" stroke="none" d="M 449 263 L 543 263 Q 553 263 553 273 L 553 292 Q 553 302 543 302 L 449 302 Q 439 302 439 292 L 439 273 Q 439 263 449 263 Z" opacity="0.2"/></g><g transform="translate(-92,-121) scale(1,1)"><path fill="#ffffff" stroke="none" d="M 442 256 L 536 256 Q 546 256 546 266 L 546 285 Q 546 295 536 295 L 442 295 Q 432 295 432 285 L 432 266 Q 432 256 442 256 Z"/></g><g transform="translate(-92,-121) scale(1,1)"><path fill="none" stroke="#000000" d="M 442 256 L 536 256 Q 546 256 546 266 L 546 285 Q 546 295 536 295 L 442 295 Q 432 295 432 285 L 432 266 Q 432 256 442 256 Z" stroke-miterlimit="10"/></g><g transform="translate(-92,-121) scale(1,1)"><g><path fill="none" stroke="none"/><text fill="#000000" stroke="none" font-family="Arial" font-size="13px" font-style="normal" font-weight="bold" text-decoration="none" x="441" y="275.5">assigningWorker</text></g></g><g transform="translate(-92,-121) scale(1,1)"><path fill="#C0C0C0" stroke="none" d="M 353 351 L 410 351 Q 420 351 420 361 L 420 380 Q 420 390 410 390 L 353 390 Q 343 390 343 380 L 343 361 Q 343 351 353 351 Z" opacity="0.2"/></g><g transform="translate(-92,-121) scale(1,1)"><path fill="#ffffff" stroke="none" d="M 346 344 L 403 344 Q 413 344 413 354 L 413 373 Q 413 383 403 383 L 346 383 Q 336 383 336 373 L 336 354 Q 336 344 346 344 Z"/></g><g transform="translate(-92,-121) scale(1,1)"><path fill="none" stroke="#000000" d="M 346 344 L 403 344 Q 413 344 413 354 L 413 373 Q 413 383 403 383 L 346 383 Q 336 383 336 373 L 336 354 Q 336 344 346 344 Z" stroke-miterlimit="10"/></g><g transform="translate(-92,-121) scale(1,1)"><g><path fill="none" stroke="none"/><text fill="#000000" stroke="none" font-family="Arial" font-size="13px" font-style="normal" font-weight="bold" text-decoration="none" x="343.5" y="363.5">overflowed</text></g></g><g transform="translate(-92,-121) scale(1,1)"><path fill="none" stroke="#000000" d="M 462 296 L 400 343" stroke-miterlimit="10"/></g><g transform="translate(-92,-121) scale(1,1)"><path fill="none" stroke="#000000" d="M 405.5556914381034 333.50609181397965 L 400 343 L 410.64167394836045 340.2152602317655" stroke-miterlimit="10"/></g><g transform="translate(-92,-121) scale(1,1)"><g><path fill="none" stroke="none"/><text fill="#000000" stroke="none" font-family="Arial" font-size="13px" font-style="normal" font-weight="normal" text-decoration="none" x="391" y="337">tooManyWorkers</text></g></g><g transform="translate(-92,-121) scale(1,1)"><path fill="none" stroke="#000000" d="M 355 343 L 304 288" stroke-miterlimit="10"/></g><g transform="translate(-92,-121) scale(1,1)"><path fill="none" stroke="#000000" d="M 313.9967100339717 292.5897481953469 L 304 288 L 307.82329938170847 298.3141835274455" stroke-miterlimit="10"/></g><g transform="translate(-92,-121) scale(1,1)"><g><path fill="none" stroke="none"/><text fill="#000000" stroke="none" font-family="Arial" font-size="13px" font-style="normal" font-weight="normal" text-decoration="none" x="267" y="332">workerCompleted</text></g></g><g transform="translate(-92,-121) scale(1,1)"><path fill="none" stroke="#000000" d="M 316 268 L 431 273" stroke-miterlimit="10"/></g><g transform="translate(-92,-121) scale(1,1)"><path fill="none" stroke="#000000" d="M 420.6640673312673 276.76410625081496 L 431 273 L 421.02976686499363 268.3530169751094" stroke-miterlimit="10"/></g><g transform="translate(-92,-121) scale(1,1)"><g><path fill="none" stroke="none"/><text fill="#000000" stroke="none" font-family="Arial" font-size="13px" font-style="normal" font-weight="normal" text-decoration="none" x="327" y="262">incomingPacket</text></g></g><g transform="translate(-92,-121) scale(1,1)"><path fill="none" stroke="#000000" d="M 122 148 L 258 247" stroke-miterlimit="10"/></g><g transform="translate(-92,-121) scale(1,1)"><path fill="none" stroke="#000000" d="M 247.30628451281828 244.42231711042464 L 258 247 L 252.26109831390147 237.61570421196691" stroke-miterlimit="10"/></g></g></svg>