<svg version="1.1" xmlns="http://www.w3.org/2000/svg" xmlns:xlink="http://www.w3.org/1999/xlink" width="480" height="219"><defs/><g><g transform="translate(-22,-166) scale(1,1)"><path fill="#C0C0C0" stroke="none" d="M 39 192.5 C 39 187.2532944 43.2532944 183 48.5 183 C 53.7467056 183 58 187.2532944 58 192.5 C 58 197.7467056 53.7467056 202 48.5 202 C 43.2532944 202 39 197.7467056 39 192.5 Z" opacity="0.2"/></g><g transform="translate(-22,-166) scale(1,1)"><path fill="#000000" stroke="none" d="M 32 185.5 C 32 180.2532944 36.2532944 176 41.5 176 C 46.7467056 176 51 180.2532944 51 185.5 C 51 190.7467056 46.7467056 195 41.5 195 C 36.2532944 195 32 190.7467056 32 185.5 Z"/></g><g transform="translate(-22,-166) scale(1,1)"><path fill="#C0C0C0" stroke="none" d="M 233 255 L 272 255 Q 282 255 282 265 L 282 284 Q 282 294 272 294 L 233 294 Q 223 294 223 284 L 223 265 Q 223 255 233 255 Z" opacity="0.2"/></g><g transform="translate(-22,-166) scale(1,1)"><path fill="#ffffff" stroke="none" d="M 226 248 L 265 248 Q 275 248 275 258 L 275 277 Q 275 287 265 287 L 226 287 Q 216 287 216 277 L 216 258 Q 216 248 226 248 Z"/></g><g transform="translate(-22,-166) scale(1,1)"><path fill="none" stroke="#000000" d="M 226 248 L 265 248 Q 275 248 275 258 L 275 277 Q 275 287 265 287 L 226 287 Q 216 287 216 277 L 216 258 Q 216 248 226 248 Z" stroke-miterlimit="10"/></g><g transform="translate(-22,-166) scale(1,1)"><g><path fill="none" stroke="none"/><text fill="#000000" stroke="none" font-family="Arial" font-size="13px" font-style="normal" font-weight="bold" text-decoration="none" x="235.5" y="267.5">idle</text></g></g><g transform="translate(-22,-166) scale(1,1)"><path fill="none" stroke="#000000" d="M 52 189 L 215 255" stroke-miterlimit="10"/></g><g transform="translate(-22,-166) scale(1,1)"><path fill="none" stroke="#000000" d="M 204.0003492635919 255.08765658581376 L 215 255 L 207.16008980735765 247.28405493984678" stroke-miterlimit="10"/></g><g transform="translate(-22,-166) scale(1,1)"><path fill="#C0C0C0" stroke="none" d="M 393 263 L 432 263 Q 442 263 442 273 L 442 292 Q 442 302 432 302 L 393 302 Q 383 302 383 292 L 383 273 Q 383 263 393 263 Z" opacity="0.2"/></g><g transform="translate(-22,-166) scale(1,1)"><path fill="#ffffff" stroke="none" d="M 386 256 L 425 256 Q 435 256 435 266 L 435 285 Q 435 295 425 295 L 386 295 Q 376 295 376 285 L 376 266 Q 376 256 386 256 Z"/></g><g transform="translate(-22,-166) scale(1,1)"><path fill="none" stroke="#000000" d="M 386 256 L 425 256 Q 435 256 435 266 L 435 285 Q 435 295 425 295 L 386 295 Q 376 295 376 285 L 376 266 Q 376 256 386 256 Z" stroke-miterlimit="10"/></g><g transform="translate(-22,-166) scale(1,1)"><g><path fill="none" stroke="none"/><text fill="#000000" stroke="none" font-family="Arial" font-size="13px" font-style="normal" font-weight="bold" text-decoration="none" x="382.5" y="275.5">fetchfile</text></g></g><g transform="translate(-22,-166) scale(1,1)"><path fill="#C0C0C0" stroke="none" d="M 441 343 L 489 343 Q 499 343 499 353 L 499 372 Q 499 382 489 382 L 441 382 Q 431 382 431 372 L 431 353 Q 431 343 441 343 Z" opacity="0.2"/></g><g transform="translate(-22,-166) scale(1,1)"><path fill="#ffffff" stroke="none" d="M 434 336 L 482 336 Q 492 336 492 346 L 492 365 Q 492 375 482 375 L 434 375 Q 424 375 424 365 L 424 346 Q 424 336 434 336 Z"/></g><g transform="translate(-22,-166) scale(1,1)"><path fill="none" stroke="#000000" d="M 434 336 L 482 336 Q 492 336 492 346 L 492 365 Q 492 375 482 375 L 434 375 Q 424 375 424 365 L 424 346 Q 424 336 434 336 Z" stroke-miterlimit="10"/></g><g transform="translate(-22,-166) scale(1,1)"><g><path fill="none" stroke="none"/><text fill="#000000" stroke="none" font-family="Arial" font-size="13px" font-style="normal" font-weight="bold" text-decoration="none" x="431.5" y="355.5">outputfile</text></g></g><g transform="translate(-22,-166) scale(1,1)"><path fill="none" stroke="#000000" d="M 419 296 L 445 335" stroke-miterlimit="10"/></g><g transform="translate(-22,-166) scale(1,1)"><path fill="none" stroke="#000000" d="M 435.8602317743892 328.87916371872967 L 445 335 L 442.86529275021616 324.20912306817837" stroke-miterlimit="10"/></g><g transform="translate(-22,-166) scale(1,1)"><g><path fill="none" stroke="none"/><text fill="#000000" stroke="none" font-family="Arial" font-size="13px" font-style="normal" font-weight="normal" text-decoration="none" x="415" y="313">fileLoaded</text></g></g><g transform="translate(-22,-166) scale(1,1)"><path fill="none" stroke="#000000" d="M 423 341 L 276 280" stroke-miterlimit="10"/></g><g transform="translate(-22,-166) scale(1,1)"><path fill="none" stroke="#000000" d="M 286.9999977326519 280.00706269453275 L 276 280 L 283.7731789105972 287.7831670689923" stroke-miterlimit="10"/></g><g transform="translate(-22,-166) scale(1,1)"><g><path fill="none" stroke="none"/><text fill="#000000" stroke="none" font-family="Arial" font-size="13px" font-style="normal" font-weight="normal" text-decoration="none" x="298" y="330">outputComplete</text></g></g><g transform="translate(-22,-166) scale(1,1)"><path fill="none" stroke="#000000" d="M 276 269 L 375 274" stroke-miterlimit="10"/></g><g transform="translate(-22,-166) scale(1,1)"><path fill="none" stroke="#000000" d="M 364.63793039578303 277.6915462231107 L 375 274 L 365.062592948306 269.2832276831564" stroke-miterlimit="10"/></g><g transform="translate(-22,-166) scale(1,1)"><g><path fill="none" stroke="none"/><text fill="#000000" stroke="none" font-family="Arial" font-size="13px" font-style="normal" font-weight="normal" text-decoration="none" x="286" y="263">taskAssigned</text></g></g></g></svg>