<svg version="1.1" xmlns="http://www.w3.org/2000/svg" xmlns:xlink="http://www.w3.org/1999/xlink" width="655" height="472"><defs/><g><g transform="translate(-78,-38) scale(1,1)"><rect fill="#C0C0C0" stroke="none" x="135" y="95" width="52.33251953125" height="44" opacity="0.2"/></g><g transform="translate(-78,-38) scale(1,1)"><rect fill="#ffffff" stroke="none" x="128" y="88" width="52.33251953125" height="44"/></g><g transform="translate(-78,-38) scale(1,1)"><path fill="none" stroke="#000000" d="M 128 88 L 180.33251953125 88 L 180.33251953125 132 L 128 132 L 128 88 Z Z" stroke-miterlimit="10"/></g><g transform="translate(-78,-38) scale(1,1)"><path fill="none" stroke="#000000" d="M 128 113 L 180.33251953125 113" stroke-miterlimit="10"/></g><g transform="translate(-78,-38) scale(1,1)"><path fill="none" stroke="#000000" d="M 128 123 L 180.33251953125 123" stroke-miterlimit="10"/></g><g transform="translate(-78,-38) scale(1,1)"><g><path fill="none" stroke="none"/><text fill="#000000" stroke="none" font-family="Arial" font-size="13px" font-style="normal" font-weight="bold" text-decoration="none" x="136.666259765625" y="107.5">Guard</text></g></g><g transform="translate(-78,-38) scale(1,1)"><rect fill="#C0C0C0" stroke="none" x="95" y="167" width="95" height="72" opacity="0.2"/></g><g transform="translate(-78,-38) scale(1,1)"><rect fill="#ffffff" stroke="none" x="88" y="160" width="95" height="72"/></g><g transform="translate(-78,-38) scale(1,1)"><path fill="none" stroke="#000000" d="M 88 160 L 183 160 L 183 232 L 88 232 L 88 160 Z Z" stroke-miterlimit="10"/></g><g transform="translate(-78,-38) scale(1,1)"><path fill="none" stroke="#000000" d="M 88 185 L 183 185" stroke-miterlimit="10"/></g><g transform="translate(-78,-38) scale(1,1)"><path fill="none" stroke="#000000" d="M 88 223 L 183 223" stroke-miterlimit="10"/></g><g transform="translate(-78,-38) scale(1,1)"><g><path fill="none" stroke="none"/><text fill="#000000" stroke="none" font-family="Arial" font-size="13px" font-style="normal" font-weight="bold" text-decoration="none" x="98.5" y="179.5">MotorControl</text></g></g><g transform="translate(-78,-38) scale(1,1)"><g><path fill="none" stroke="none"/><text fill="#000000" stroke="none" font-family="Arial" font-size="13px" font-style="normal" font-weight="normal" text-decoration="none" x="93" y="202.5">+controlPort</text></g></g><g transform="translate(-78,-38) scale(1,1)"><g><path fill="none" stroke="none"/><text fill="#000000" stroke="none" font-family="Arial" font-size="13px" font-style="normal" font-weight="normal" text-decoration="none" x="93" y="217.5">+holeIndex</text></g></g><g transform="translate(-78,-38) scale(1,1)"><rect fill="#C0C0C0" stroke="none" x="575" y="183" width="155" height="44" opacity="0.2"/></g><g transform="translate(-78,-38) scale(1,1)"><rect fill="#ffffff" stroke="none" x="568" y="176" width="155" height="44"/></g><g transform="translate(-78,-38) scale(1,1)"><path fill="none" stroke="#000000" d="M 568 176 L 723 176 L 723 220 L 568 220 L 568 176 Z Z" stroke-miterlimit="10"/></g><g transform="translate(-78,-38) scale(1,1)"><path fill="none" stroke="#000000" d="M 568 201 L 723 201" stroke-miterlimit="10"/></g><g transform="translate(-78,-38) scale(1,1)"><path fill="none" stroke="#000000" d="M 568 211 L 723 211" stroke-miterlimit="10"/></g><g transform="translate(-78,-38) scale(1,1)"><g><path fill="none" stroke="none"/><text fill="#000000" stroke="none" font-family="Arial" font-size="13px" font-style="normal" font-weight="bold" text-decoration="none" x="578.5" y="195.5">SensorCapture Arduino</text></g></g><g transform="translate(-78,-38) scale(1,1)"><rect fill="#C0C0C0" stroke="none" x="239" y="407" width="181" height="44" opacity="0.2"/></g><g transform="translate(-78,-38) scale(1,1)"><rect fill="#ffffff" stroke="none" x="232" y="400" width="181" height="44"/></g><g transform="translate(-78,-38) scale(1,1)"><path fill="none" stroke="#000000" d="M 232 400 L 413 400 L 413 444 L 232 444 L 232 400 Z Z" stroke-miterlimit="10"/></g><g transform="translate(-78,-38) scale(1,1)"><path fill="none" stroke="#000000" d="M 232 425 L 413 425" stroke-miterlimit="10"/></g><g transform="translate(-78,-38) scale(1,1)"><path fill="none" stroke="#000000" d="M 232 435 L 413 435" stroke-miterlimit="10"/></g><g transform="translate(-78,-38) scale(1,1)"><g><path fill="none" stroke="none"/><text fill="#000000" stroke="none" font-family="Arial" font-size="13px" font-style="normal" font-weight="bold" text-decoration="none" x="260" y="419.5">SensorCommunicator</text></g></g><g transform="translate(-78,-38) scale(1,1)"><rect fill="#C0C0C0" stroke="none" x="111" y="255" width="88" height="57" opacity="0.2"/></g><g transform="translate(-78,-38) scale(1,1)"><rect fill="#ffffff" stroke="none" x="104" y="248" width="88" height="57"/></g><g transform="translate(-78,-38) scale(1,1)"><path fill="none" stroke="#000000" d="M 104 248 L 192 248 L 192 305 L 104 305 L 104 248 Z Z" stroke-miterlimit="10"/></g><g transform="translate(-78,-38) scale(1,1)"><path fill="none" stroke="#000000" d="M 104 273 L 192 273" stroke-miterlimit="10"/></g><g transform="translate(-78,-38) scale(1,1)"><path fill="none" stroke="#000000" d="M 104 296 L 192 296" stroke-miterlimit="10"/></g><g transform="translate(-78,-38) scale(1,1)"><g><path fill="none" stroke="none"/><text fill="#000000" stroke="none" font-family="Arial" font-size="13px" font-style="normal" font-weight="bold" text-decoration="none" x="116" y="267.5">WebServer</text></g></g><g transform="translate(-78,-38) scale(1,1)"><g><path fill="none" stroke="none"/><text fill="#000000" stroke="none" font-family="Arial" font-size="13px" font-style="normal" font-weight="normal" text-decoration="none" x="109" y="290.5">+workerPool</text></g></g><g transform="translate(-78,-38) scale(1,1)"><rect fill="#C0C0C0" stroke="none" x="111" y="407" width="80" height="44" opacity="0.2"/></g><g transform="translate(-78,-38) scale(1,1)"><rect fill="#ffffff" stroke="none" x="104" y="400" width="80" height="44"/></g><g transform="translate(-78,-38) scale(1,1)"><path fill="none" stroke="#000000" d="M 104 400 L 184 400 L 184 444 L 104 444 L 104 400 Z Z" stroke-miterlimit="10"/></g><g transform="translate(-78,-38) scale(1,1)"><path fill="none" stroke="#000000" d="M 104 425 L 184 425" stroke-miterlimit="10"/></g><g transform="translate(-78,-38) scale(1,1)"><path fill="none" stroke="#000000" d="M 104 435 L 184 435" stroke-miterlimit="10"/></g><g transform="translate(-78,-38) scale(1,1)"><g><path fill="none" stroke="none"/><text fill="#000000" stroke="none" font-family="Arial" font-size="13px" font-style="normal" font-weight="bold" text-decoration="none" x="110.5" y="419.5">WebWorker</text></g></g><g transform="translate(-78,-38) scale(1,1)"><rect fill="#C0C0C0" stroke="none" x="527" y="463" width="110" height="44" opacity="0.2"/></g><g transform="translate(-78,-38) scale(1,1)"><rect fill="#ffffff" stroke="none" x="520" y="456" width="110" height="44"/></g><g transform="translate(-78,-38) scale(1,1)"><path fill="none" stroke="#000000" d="M 520 456 L 630 456 L 630 500 L 520 500 L 520 456 Z Z" stroke-miterlimit="10"/></g><g transform="translate(-78,-38) scale(1,1)"><path fill="none" stroke="#000000" d="M 520 481 L 630 481" stroke-miterlimit="10"/></g><g transform="translate(-78,-38) scale(1,1)"><path fill="none" stroke="#000000" d="M 520 491 L 630 491" stroke-miterlimit="10"/></g><g transform="translate(-78,-38) scale(1,1)"><g><path fill="none" stroke="none"/><text fill="#000000" stroke="none" font-family="Arial" font-size="13px" font-style="normal" font-weight="bold" text-decoration="none" x="527.5" y="475.5">ImageProcessor</text></g></g><g transform="translate(-78,-38) scale(1,1)"><rect fill="#C0C0C0" stroke="none" x="383" y="55" width="115" height="117" opacity="0.2"/></g><g transform="translate(-78,-38) scale(1,1)"><rect fill="#ffffff" stroke="none" x="376" y="48" width="115" height="117"/></g><g transform="translate(-78,-38) scale(1,1)"><path fill="none" stroke="#000000" d="M 376 48 L 491 48 L 491 165 L 376 165 L 376 48 Z Z" stroke-miterlimit="10"/></g><g transform="translate(-78,-38) scale(1,1)"><path fill="none" stroke="#000000" d="M 376 73 L 491 73" stroke-miterlimit="10"/></g><g transform="translate(-78,-38) scale(1,1)"><path fill="none" stroke="#000000" d="M 376 156 L 491 156" stroke-miterlimit="10"/></g><g transform="translate(-78,-38) scale(1,1)"><g><path fill="none" stroke="none"/><text fill="#000000" stroke="none" font-family="Arial" font-size="13px" font-style="normal" font-weight="bold" text-decoration="none" x="419.5" y="67.5">Main</text></g></g><g transform="translate(-78,-38) scale(1,1)"><g><path fill="none" stroke="none"/><text fill="#000000" stroke="none" font-family="Arial" font-size="13px" font-style="normal" font-weight="normal" text-decoration="none" x="381" y="90.5">+guard</text></g></g><g transform="translate(-78,-38) scale(1,1)"><g><path fill="none" stroke="none"/><text fill="#000000" stroke="none" font-family="Arial" font-size="13px" font-style="normal" font-weight="normal" text-decoration="none" x="381" y="105.5">+motorControl</text></g></g><g transform="translate(-78,-38) scale(1,1)"><g><path fill="none" stroke="none"/><text fill="#000000" stroke="none" font-family="Arial" font-size="13px" font-style="normal" font-weight="normal" text-decoration="none" x="381" y="120.5">+webServer</text></g></g><g transform="translate(-78,-38) scale(1,1)"><g><path fill="none" stroke="none"/><text fill="#000000" stroke="none" font-family="Arial" font-size="13px" font-style="normal" font-weight="normal" text-decoration="none" x="381" y="135.5">+sensorComm</text></g></g><g transform="translate(-78,-38) scale(1,1)"><g><path fill="none" stroke="none"/><text fill="#000000" stroke="none" font-family="Arial" font-size="13px" font-style="normal" font-weight="normal" text-decoration="none" x="381" y="150.5">+imageProcessor</text></g></g><g transform="translate(-78,-38) scale(1,1)"><path fill="none" stroke="#000000" d="M 184 181 L 375 124" stroke-miterlimit="10"/></g><g transform="translate(-78,-38) scale(1,1)"><path fill="#000000" stroke="none" d="M 366.4655053807369 130.93991365895639 L 375 124 L 364.05794097162175 122.87246098981616 L 353.91873024321666 130.29126898500866"/></g><g transform="translate(-78,-38) scale(1,1)"><path fill="none" stroke="#000000" d="M 366.4655053807369 130.93991365895639 L 375 124 L 364.05794097162175 122.87246098981616 L 353.91873024321666 130.29126898500866 L 366.4655053807369 130.93991365895639" stroke-miterlimit="10"/></g><g transform="translate(-78,-38) scale(1,1)"><g><path fill="none" stroke="none"/><text fill="#000000" stroke="none" font-family="Arial" font-size="13px" font-style="normal" font-weight="normal" text-decoration="none" x="233" y="144">+motorControl</text></g></g><g transform="translate(-78,-38) scale(1,1)"><path fill="none" stroke="#000000" d="M 193 249 L 375 141" stroke-miterlimit="10"/></g><g transform="translate(-78,-38) scale(1,1)"><path fill="#000000" stroke="none" d="M 368.4084613051307 149.80633962745253 L 375 141 L 364.1120558224009 142.56610075840786 L 356.0803440736957 152.2270485716531"/></g><g transform="translate(-78,-38) scale(1,1)"><path fill="none" stroke="#000000" d="M 368.4084613051307 149.80633962745253 L 375 141 L 364.1120558224009 142.56610075840786 L 356.0803440736957 152.2270485716531 L 368.4084613051307 149.80633962745253" stroke-miterlimit="10"/></g><g transform="translate(-78,-38) scale(1,1)"><g><path fill="none" stroke="none"/><text fill="#000000" stroke="none" font-family="Arial" font-size="13px" font-style="normal" font-weight="normal" text-decoration="none" x="242" y="189">+webServer</text></g></g><g transform="translate(-78,-38) scale(1,1)"><path fill="none" stroke="#000000" d="M 145 399 L 147 306" stroke-miterlimit="10"/></g><g transform="translate(-78,-38) scale(1,1)"><path fill="#FFFFFF" stroke="none" d="M 150.9900430552203 316.25083198659934 L 147 306 L 142.5729536910442 316.06981931210095 L 146.5269910866543 327.99491447057466"/></g><g transform="translate(-78,-38) scale(1,1)"><path fill="none" stroke="#000000" d="M 150.9900430552203 316.25083198659934 L 147 306 L 142.5729536910442 316.06981931210095 L 146.5269910866543 327.99491447057466 L 150.9900430552203 316.25083198659934" stroke-miterlimit="10"/></g><g transform="translate(-78,-38) scale(1,1)"><g><path fill="none" stroke="none"/><text fill="#000000" stroke="none" font-family="Arial" font-size="13px" font-style="normal" font-weight="normal" text-decoration="none" x="95" y="358">+workerPool</text></g></g><g transform="translate(-78,-38) scale(1,1)"><path fill="none" stroke="#000000" d="M 330 399 L 412 166" stroke-miterlimit="10"/></g><g transform="translate(-78,-38) scale(1,1)"><path fill="#000000" stroke="none" d="M 412.5970585604191 176.98378446053226 L 412 166 L 404.655475681704 174.1888926319716 L 404.696595691934 186.75235614365084"/></g><g transform="translate(-78,-38) scale(1,1)"><path fill="none" stroke="#000000" d="M 412.5970585604191 176.98378446053226 L 412 166 L 404.655475681704 174.1888926319716 L 404.696595691934 186.75235614365084 L 412.5970585604191 176.98378446053226" stroke-miterlimit="10"/></g><g transform="translate(-78,-38) scale(1,1)"><g><path fill="none" stroke="none"/><text fill="#000000" stroke="none" font-family="Arial" font-size="13px" font-style="normal" font-weight="normal" text-decoration="none" x="314" y="284">+sensorComm</text></g></g><g transform="translate(-78,-38) scale(1,1)"><path fill="none" stroke="#000000" d="M 566 455 L 456 166" stroke-miterlimit="10"/></g><g transform="translate(-78,-38) scale(1,1)"><path fill="#000000" stroke="none" d="M 463.54930515756564 174.00049946178066 L 456 166 L 455.6809574478568 176.99537229246567 L 463.82597985017503 186.56098342455084"/></g><g transform="translate(-78,-38) scale(1,1)"><path fill="none" stroke="#000000" d="M 463.54930515756564 174.00049946178066 L 456 166 L 455.6809574478568 176.99537229246567 L 463.82597985017503 186.56098342455084 L 463.54930515756564 174.00049946178066" stroke-miterlimit="10"/></g><g transform="translate(-78,-38) scale(1,1)"><g><path fill="none" stroke="none"/><text fill="#000000" stroke="none" font-family="Arial" font-size="13px" font-style="normal" font-weight="normal" text-decoration="none" x="445" y="322">+imageProcessor</text></g></g><g transform="translate(-78,-38) scale(1,1)"><path fill="none" stroke="#000000" d="M 181 110 L 375 107" stroke-miterlimit="10"/></g><g transform="translate(-78,-38) scale(1,1)"><path fill="#000000" stroke="none" d="M 364.9036278922069 111.36615050828271 L 375 107 L 364.77345218510897 102.94812144928457 L 353.0026299885198 107.34016551564144"/></g><g transform="translate(-78,-38) scale(1,1)"><path fill="none" stroke="#000000" d="M 364.9036278922069 111.36615050828271 L 375 107 L 364.77345218510897 102.94812144928457 L 353.0026299885198 107.34016551564144 L 364.9036278922069 111.36615050828271" stroke-miterlimit="10"/></g><g transform="translate(-78,-38) scale(1,1)"><g><path fill="none" stroke="none"/><text fill="#000000" stroke="none" font-family="Arial" font-size="13px" font-style="normal" font-weight="normal" text-decoration="none" x="257" y="100">+guard</text></g></g></g></svg>