<svg version="1.1" xmlns="http://www.w3.org/2000/svg" xmlns:xlink="http://www.w3.org/1999/xlink" width="374" height="515"><defs/><g><g transform="translate(-126,-86) scale(1,1)"><path fill="#C0C0C0" stroke="none" d="M 159 112.5 C 159 107.2532944 163.2532944 103 168.5 103 C 173.7467056 103 178 107.2532944 178 112.5 C 178 117.7467056 173.7467056 122 168.5 122 C 163.2532944 122 159 117.7467056 159 112.5 Z" opacity="0.2"/></g><g transform="translate(-126,-86) scale(1,1)"><path fill="#000000" stroke="none" d="M 152 105.5 C 152 100.2532944 156.2532944 96 161.5 96 C 166.7467056 96 171 100.2532944 171 105.5 C 171 110.7467056 166.7467056 115 161.5 115 C 156.2532944 115 152 110.7467056 152 105.5 Z"/></g><g transform="translate(-126,-86) scale(1,1)"><path fill="#C0C0C0" stroke="none" d="M 297 279 L 336 279 Q 346 279 346 289 L 346 308 Q 346 318 336 318 L 297 318 Q 287 318 287 308 L 287 289 Q 287 279 297 279 Z" opacity="0.2"/></g><g transform="translate(-126,-86) scale(1,1)"><path fill="#ffffff" stroke="none" d="M 290 272 L 329 272 Q 339 272 339 282 L 339 301 Q 339 311 329 311 L 290 311 Q 280 311 280 301 L 280 282 Q 280 272 290 272 Z"/></g><g transform="translate(-126,-86) scale(1,1)"><path fill="none" stroke="#000000" d="M 290 272 L 329 272 Q 339 272 339 282 L 339 301 Q 339 311 329 311 L 290 311 Q 280 311 280 301 L 280 282 Q 280 272 290 272 Z" stroke-miterlimit="10"/></g><g transform="translate(-126,-86) scale(1,1)"><g><path fill="none" stroke="none"/><text fill="#000000" stroke="none" font-family="Arial" font-size="13px" font-style="normal" font-weight="bold" text-decoration="none" x="299.5" y="291.5">idle</text></g></g><g transform="translate(-126,-86) scale(1,1)"><path fill="none" stroke="#000000" d="M 170 116 L 293 271" stroke-miterlimit="10"/></g><g transform="translate(-126,-86) scale(1,1)"><path fill="none" stroke="#000000" d="M 283.38536052213897 265.65596522178646 L 293 271 L 289.98022645711217 260.422619995969" stroke-miterlimit="10"/></g><g transform="translate(-126,-86) scale(1,1)"><path fill="#C0C0C0" stroke="none" d="M 377 367 L 477 367 Q 487 367 487 377 L 487 396 Q 487 406 477 406 L 377 406 Q 367 406 367 396 L 367 377 Q 367 367 377 367 Z" opacity="0.2"/></g><g transform="translate(-126,-86) scale(1,1)"><path fill="#ffffff" stroke="none" d="M 370 360 L 470 360 Q 480 360 480 370 L 480 389 Q 480 399 470 399 L 370 399 Q 360 399 360 389 L 360 370 Q 360 360 370 360 Z"/></g><g transform="translate(-126,-86) scale(1,1)"><path fill="none" stroke="#000000" d="M 370 360 L 470 360 Q 480 360 480 370 L 480 389 Q 480 399 470 399 L 370 399 Q 360 399 360 389 L 360 370 Q 360 360 370 360 Z" stroke-miterlimit="10"/></g><g transform="translate(-126,-86) scale(1,1)"><g><path fill="none" stroke="none"/><text fill="#000000" stroke="none" font-family="Arial" font-size="13px" font-style="normal" font-weight="bold" text-decoration="none" x="371.5" y="379.5">informingArduino</text></g></g><g transform="translate(-126,-86) scale(1,1)"><path fill="none" stroke="#000000" d="M 335 312 L 395 359" stroke-miterlimit="10"/></g><g transform="translate(-126,-86) scale(1,1)"><path fill="none" stroke="#000000" d="M 384.4038077188493 356.0469153176921 L 395 359 L 389.5955067875198 349.4192143789637" stroke-miterlimit="10"/></g><g transform="translate(-126,-86) scale(1,1)"><g><path fill="none" stroke="none"/><text fill="#000000" stroke="none" font-family="Arial" font-size="13px" font-style="normal" font-weight="normal" text-decoration="none" x="343" y="333">startScan</text></g></g><g transform="translate(-126,-86) scale(1,1)"><path fill="#C0C0C0" stroke="none" d="M 377 463 L 463 463 Q 473 463 473 473 L 473 492 Q 473 502 463 502 L 377 502 Q 367 502 367 492 L 367 473 Q 367 463 377 463 Z" opacity="0.2"/></g><g transform="translate(-126,-86) scale(1,1)"><path fill="#ffffff" stroke="none" d="M 370 456 L 456 456 Q 466 456 466 466 L 466 485 Q 466 495 456 495 L 370 495 Q 360 495 360 485 L 360 466 Q 360 456 370 456 Z"/></g><g transform="translate(-126,-86) scale(1,1)"><path fill="none" stroke="#000000" d="M 370 456 L 456 456 Q 466 456 466 466 L 466 485 Q 466 495 456 495 L 370 495 Q 360 495 360 485 L 360 466 Q 360 456 370 456 Z" stroke-miterlimit="10"/></g><g transform="translate(-126,-86) scale(1,1)"><g><path fill="none" stroke="none"/><text fill="#000000" stroke="none" font-family="Arial" font-size="13px" font-style="normal" font-weight="bold" text-decoration="none" x="368" y="475.5">consumingData</text></g></g><g transform="translate(-126,-86) scale(1,1)"><path fill="none" stroke="#000000" d="M 418 400 L 414 455" stroke-miterlimit="10"/></g><g transform="translate(-126,-86) scale(1,1)"><path fill="none" stroke="#000000" d="M 410.5387275760403 444.55875518881317 L 414 455 L 418.9355858075031 445.16943578746503" stroke-miterlimit="10"/></g><g transform="translate(-126,-86) scale(1,1)"><g><path fill="none" stroke="none"/><text fill="#000000" stroke="none" font-family="Arial" font-size="13px" font-style="normal" font-weight="normal" text-decoration="none" x="369" y="435">informAwknowledged</text></g></g><g transform="translate(-126,-86) scale(1,1)"><path fill="#C0C0C0" stroke="none" d="M 361 559 L 422 559 Q 432 559 432 569 L 432 588 Q 432 598 422 598 L 361 598 Q 351 598 351 588 L 351 569 Q 351 559 361 559 Z" opacity="0.2"/></g><g transform="translate(-126,-86) scale(1,1)"><path fill="#ffffff" stroke="none" d="M 354 552 L 415 552 Q 425 552 425 562 L 425 581 Q 425 591 415 591 L 354 591 Q 344 591 344 581 L 344 562 Q 344 552 354 552 Z"/></g><g transform="translate(-126,-86) scale(1,1)"><path fill="none" stroke="#000000" d="M 354 552 L 415 552 Q 425 552 425 562 L 425 581 Q 425 591 415 591 L 354 591 Q 344 591 344 581 L 344 562 Q 344 552 354 552 Z" stroke-miterlimit="10"/></g><g transform="translate(-126,-86) scale(1,1)"><g><path fill="none" stroke="none"/><text fill="#000000" stroke="none" font-family="Arial" font-size="13px" font-style="normal" font-weight="bold" text-decoration="none" x="352.5" y="571.5">writingData</text></g></g><g transform="translate(-126,-86) scale(1,1)"><path fill="none" stroke="#000000" d="M 407 496 L 390 551" stroke-miterlimit="10"/></g><g transform="translate(-126,-86) scale(1,1)"><path fill="none" stroke="#000000" d="M 388.9793172326964 540.0474566109725 L 390 551 L 397.0228859954206 542.5336505921782" stroke-miterlimit="10"/></g><g transform="translate(-126,-86) scale(1,1)"><g><path fill="none" stroke="none"/><text fill="#000000" stroke="none" font-family="Arial" font-size="13px" font-style="normal" font-weight="normal" text-decoration="none" x="354" y="534">rowPacketComplete</text></g></g><g transform="translate(-126,-86) scale(1,1)"><path fill="none" stroke="#000000" d="M 358 551 L 288 496 L 288 432 L 368 400" stroke-miterlimit="10"/></g><g transform="translate(-126,-86) scale(1,1)"><path fill="none" stroke="#000000" d="M 360.1275689241817 407.68276180526834 L 368 400 L 357.00081763111893 399.86588357261144" stroke-miterlimit="10"/></g><g transform="translate(-126,-86) scale(1,1)"><g><path fill="none" stroke="none"/><text fill="#000000" stroke="none" font-family="Arial" font-size="13px" font-style="normal" font-weight="normal" text-decoration="none" x="220" y="470">triggerRowCapture</text></g></g><g transform="translate(-126,-86) scale(1,1)"><path fill="none" stroke="#000000" d="M 343 556 L 200 504 L 200 408 L 289 312" stroke-miterlimit="10"/></g><g transform="translate(-126,-86) scale(1,1)"><path fill="none" stroke="#000000" d="M 285.1777510692705 322.3145728516278 L 289 312 L 279.0037574532695 316.59076627012684" stroke-miterlimit="10"/></g><g transform="translate(-126,-86) scale(1,1)"><g><path fill="none" stroke="none"/><text fill="#000000" stroke="none" font-family="Arial" font-size="13px" font-style="normal" font-weight="normal" text-decoration="none" x="136" y="436">scanComplete</text></g></g></g></svg>