<svg version="1.1" xmlns="http://www.w3.org/2000/svg" xmlns:xlink="http://www.w3.org/1999/xlink" width="416" height="267"><defs/><g><g transform="translate(-102,-198) scale(1,1)"><path fill="#C0C0C0" stroke="none" d="M 119 224.5 C 119 219.2532944 123.2532944 215 128.5 215 C 133.7467056 215 138 219.2532944 138 224.5 C 138 229.7467056 133.7467056 234 128.5 234 C 123.2532944 234 119 229.7467056 119 224.5 Z" opacity="0.2"/></g><g transform="translate(-102,-198) scale(1,1)"><path fill="#000000" stroke="none" d="M 112 217.5 C 112 212.2532944 116.2532944 208 121.5 208 C 126.7467056 208 131 212.2532944 131 217.5 C 131 222.7467056 126.7467056 227 121.5 227 C 116.2532944 227 112 222.7467056 112 217.5 Z"/></g><g transform="translate(-102,-198) scale(1,1)"><path fill="#C0C0C0" stroke="none" d="M 289 327 L 328 327 Q 338 327 338 337 L 338 356 Q 338 366 328 366 L 289 366 Q 279 366 279 356 L 279 337 Q 279 327 289 327 Z" opacity="0.2"/></g><g transform="translate(-102,-198) scale(1,1)"><path fill="#ffffff" stroke="none" d="M 282 320 L 321 320 Q 331 320 331 330 L 331 349 Q 331 359 321 359 L 282 359 Q 272 359 272 349 L 272 330 Q 272 320 282 320 Z"/></g><g transform="translate(-102,-198) scale(1,1)"><path fill="none" stroke="#000000" d="M 282 320 L 321 320 Q 331 320 331 330 L 331 349 Q 331 359 321 359 L 282 359 Q 272 359 272 349 L 272 330 Q 272 320 282 320 Z" stroke-miterlimit="10"/></g><g transform="translate(-102,-198) scale(1,1)"><g><path fill="none" stroke="none"/><text fill="#000000" stroke="none" font-family="Arial" font-size="13px" font-style="normal" font-weight="bold" text-decoration="none" x="291.5" y="339.5">idle</text></g></g><g transform="translate(-102,-198) scale(1,1)"><path fill="none" stroke="#000000" d="M 132 224 L 271 319" stroke-miterlimit="10"/></g><g transform="translate(-102,-198) scale(1,1)"><path fill="none" stroke="#000000" d="M 260.2344566099949 316.74100121338745 L 271 319 L 264.9849646264753 309.7902579050634" stroke-miterlimit="10"/></g><g transform="translate(-102,-198) scale(1,1)"><path fill="#C0C0C0" stroke="none" d="M 425 335 L 490 335 Q 500 335 500 345 L 500 364 Q 500 374 490 374 L 425 374 Q 415 374 415 364 L 415 345 Q 415 335 425 335 Z" opacity="0.2"/></g><g transform="translate(-102,-198) scale(1,1)"><path fill="#ffffff" stroke="none" d="M 418 328 L 483 328 Q 493 328 493 338 L 493 357 Q 493 367 483 367 L 418 367 Q 408 367 408 357 L 408 338 Q 408 328 418 328 Z"/></g><g transform="translate(-102,-198) scale(1,1)"><path fill="none" stroke="#000000" d="M 418 328 L 483 328 Q 493 328 493 338 L 493 357 Q 493 367 483 367 L 418 367 Q 408 367 408 357 L 408 338 Q 408 328 418 328 Z" stroke-miterlimit="10"/></g><g transform="translate(-102,-198) scale(1,1)"><g><path fill="none" stroke="none"/><text fill="#000000" stroke="none" font-family="Arial" font-size="13px" font-style="normal" font-weight="bold" text-decoration="none" x="415.5" y="347.5">scaningRow</text></g></g><g transform="translate(-102,-198) scale(1,1)"><path fill="none" stroke="#000000" d="M 332 341 L 407 345" stroke-miterlimit="10"/></g><g transform="translate(-102,-198) scale(1,1)"><path fill="none" stroke="#000000" d="M 396.62755896949545 348.66230351946774 L 407 345 L 397.07593695649365 340.25521626325167" stroke-miterlimit="10"/></g><g transform="translate(-102,-198) scale(1,1)"><g><path fill="none" stroke="none"/><text fill="#000000" stroke="none" font-family="Arial" font-size="13px" font-style="normal" font-weight="normal" text-decoration="none" x="341" y="335">startScan</text></g></g><g transform="translate(-102,-198) scale(1,1)"><path fill="#C0C0C0" stroke="none" d="M 417 423 L 463 423 Q 473 423 473 433 L 473 452 Q 473 462 463 462 L 417 462 Q 407 462 407 452 L 407 433 Q 407 423 417 423 Z" opacity="0.2"/></g><g transform="translate(-102,-198) scale(1,1)"><path fill="#ffffff" stroke="none" d="M 410 416 L 456 416 Q 466 416 466 426 L 466 445 Q 466 455 456 455 L 410 455 Q 400 455 400 445 L 400 426 Q 400 416 410 416 Z"/></g><g transform="translate(-102,-198) scale(1,1)"><path fill="none" stroke="#000000" d="M 410 416 L 456 416 Q 466 416 466 426 L 466 445 Q 466 455 456 455 L 410 455 Q 400 455 400 445 L 400 426 Q 400 416 410 416 Z" stroke-miterlimit="10"/></g><g transform="translate(-102,-198) scale(1,1)"><g><path fill="none" stroke="none"/><text fill="#000000" stroke="none" font-family="Arial" font-size="13px" font-style="normal" font-weight="bold" text-decoration="none" x="407" y="435.5">writeRow</text></g></g><g transform="translate(-102,-198) scale(1,1)"><path fill="none" stroke="#000000" d="M 446 368 L 437 415" stroke-miterlimit="10"/></g><g transform="translate(-102,-198) scale(1,1)"><path fill="none" stroke="#000000" d="M 434.77691761831875 404.22698256177694 L 437 415 L 443.0457170571853 405.8103696883684" stroke-miterlimit="10"/></g><g transform="translate(-102,-198) scale(1,1)"><g><path fill="none" stroke="none"/><text fill="#000000" stroke="none" font-family="Arial" font-size="13px" font-style="normal" font-weight="normal" text-decoration="none" x="401" y="400">scanRowComplete</text></g></g><g transform="translate(-102,-198) scale(1,1)"><path fill="none" stroke="#000000" d="M 399 419 L 344 392 L 318 360" stroke-miterlimit="10"/></g><g transform="translate(-102,-198) scale(1,1)"><path fill="none" stroke="#000000" d="M 327.67557348063275 365.2329033834838 L 318 360 L 321.1414421522687 370.5418850877796" stroke-miterlimit="10"/></g><g transform="translate(-102,-198) scale(1,1)"><g><path fill="none" stroke="none"/><text fill="#000000" stroke="none" font-family="Arial" font-size="13px" font-style="normal" font-weight="normal" text-decoration="none" x="286" y="408">writingComplete</text></g></g></g></svg>