<svg version="1.1" xmlns="http://www.w3.org/2000/svg" xmlns:xlink="http://www.w3.org/1999/xlink" width="586" height="380"><defs/><g><g transform="translate(-94,-78) scale(1,1)"><path fill="#C0C0C0" stroke="none" d="M 111 184.5 C 111 179.2532944 115.2532944 175 120.5 175 C 125.7467056 175 130 179.2532944 130 184.5 C 130 189.7467056 125.7467056 194 120.5 194 C 115.2532944 194 111 189.7467056 111 184.5 Z" opacity="0.2"/></g><g transform="translate(-94,-78) scale(1,1)"><path fill="#000000" stroke="none" d="M 104 177.5 C 104 172.2532944 108.2532944 168 113.5 168 C 118.7467056 168 123 172.2532944 123 177.5 C 123 182.7467056 118.7467056 187 113.5 187 C 108.2532944 187 104 182.7467056 104 177.5 Z"/></g><g transform="translate(-94,-78) scale(1,1)"><path fill="#C0C0C0" stroke="none" d="M 345 255 L 384 255 Q 394 255 394 265 L 394 284 Q 394 294 384 294 L 345 294 Q 335 294 335 284 L 335 265 Q 335 255 345 255 Z" opacity="0.2"/></g><g transform="translate(-94,-78) scale(1,1)"><path fill="#ffffff" stroke="none" d="M 338 248 L 377 248 Q 387 248 387 258 L 387 277 Q 387 287 377 287 L 338 287 Q 328 287 328 277 L 328 258 Q 328 248 338 248 Z"/></g><g transform="translate(-94,-78) scale(1,1)"><path fill="none" stroke="#000000" d="M 338 248 L 377 248 Q 387 248 387 258 L 387 277 Q 387 287 377 287 L 338 287 Q 328 287 328 277 L 328 258 Q 328 248 338 248 Z" stroke-miterlimit="10"/></g><g transform="translate(-94,-78) scale(1,1)"><g><path fill="none" stroke="none"/><text fill="#000000" stroke="none" font-family="Arial" font-size="13px" font-style="normal" font-weight="bold" text-decoration="none" x="346" y="267.5">wait</text></g></g><g transform="translate(-94,-78) scale(1,1)"><path fill="#C0C0C0" stroke="none" d="M 425 415 L 504 415 Q 514 415 514 425 L 514 444 Q 514 454 504 454 L 425 454 Q 415 454 415 444 L 415 425 Q 415 415 425 415 Z" opacity="0.2"/></g><g transform="translate(-94,-78) scale(1,1)"><path fill="#ffffff" stroke="none" d="M 418 408 L 497 408 Q 507 408 507 418 L 507 437 Q 507 447 497 447 L 418 447 Q 408 447 408 437 L 408 418 Q 408 408 418 408 Z"/></g><g transform="translate(-94,-78) scale(1,1)"><path fill="none" stroke="#000000" d="M 418 408 L 497 408 Q 507 408 507 418 L 507 437 Q 507 447 497 447 L 418 447 Q 408 447 408 437 L 408 418 Q 408 408 418 408 Z" stroke-miterlimit="10"/></g><g transform="translate(-94,-78) scale(1,1)"><g><path fill="none" stroke="none"/><text fill="#000000" stroke="none" font-family="Arial" font-size="13px" font-style="normal" font-weight="bold" text-decoration="none" x="414" y="427.5">checkContacts</text></g></g><g transform="translate(-94,-78) scale(1,1)"><path fill="#C0C0C0" stroke="none" d="M 225 415 L 277 415 Q 287 415 287 425 L 287 444 Q 287 454 277 454 L 225 454 Q 215 454 215 444 L 215 425 Q 215 415 225 415 Z" opacity="0.2"/></g><g transform="translate(-94,-78) scale(1,1)"><path fill="#ffffff" stroke="none" d="M 218 408 L 270 408 Q 280 408 280 418 L 280 437 Q 280 447 270 447 L 218 447 Q 208 447 208 437 L 208 418 Q 208 408 218 408 Z"/></g><g transform="translate(-94,-78) scale(1,1)"><path fill="none" stroke="#000000" d="M 218 408 L 270 408 Q 280 408 280 418 L 280 437 Q 280 447 270 447 L 218 447 Q 208 447 208 437 L 208 418 Q 208 408 218 408 Z" stroke-miterlimit="10"/></g><g transform="translate(-94,-78) scale(1,1)"><g><path fill="none" stroke="none"/><text fill="#000000" stroke="none" font-family="Arial" font-size="13px" font-style="normal" font-weight="bold" text-decoration="none" x="215" y="427.5">stopMotor</text></g></g><g transform="translate(-94,-78) scale(1,1)"><path fill="none" stroke="#000000" d="M 407 427 L 281 427" stroke-miterlimit="10"/></g><g transform="translate(-94,-78) scale(1,1)"><path fill="none" stroke="#000000" d="M 291.16267485762415 422.790482243984 L 281 427 L 291.16267485762415 431.209517756016" stroke-miterlimit="10"/></g><g transform="translate(-94,-78) scale(1,1)"><g><path fill="none" stroke="none"/><text fill="#000000" stroke="none" font-family="Arial" font-size="13px" font-style="normal" font-weight="normal" text-decoration="none" x="302" y="449">contactClosed</text></g></g><g transform="translate(-94,-78) scale(1,1)"><path fill="none" stroke="#000000" d="M 258 407 L 342 288" stroke-miterlimit="10"/></g><g transform="translate(-94,-78) scale(1,1)"><path fill="none" stroke="#000000" d="M 339.5783968934573 298.7301369233753 L 342 288 L 332.7003154404424 293.8750206036001" stroke-miterlimit="10"/></g><g transform="translate(-94,-78) scale(1,1)"><g><path fill="none" stroke="none"/><text fill="#000000" stroke="none" font-family="Arial" font-size="13px" font-style="normal" font-weight="normal" text-decoration="none" x="247" y="345">motorStopped</text></g></g><g transform="translate(-94,-78) scale(1,1)"><path fill="none" stroke="#000000" d="M 366 288 L 392 353 L 439 407" stroke-miterlimit="10"/></g><g transform="translate(-94,-78) scale(1,1)"><path fill="none" stroke="#000000" d="M 429.1526960838847 402.09789784034854 L 439 407 L 435.5032143036688 396.5705949453512" stroke-miterlimit="10"/></g><g transform="translate(-94,-78) scale(1,1)"><g><path fill="none" stroke="none"/><text fill="#000000" stroke="none" font-family="Arial" font-size="13px" font-style="normal" font-weight="normal" text-decoration="none" x="320" y="365">checkContactTimeout</text></g></g><g transform="translate(-94,-78) scale(1,1)"><path fill="none" stroke="#000000" d="M 457 407 L 456 312 L 388 281" stroke-miterlimit="10"/></g><g transform="translate(-94,-78) scale(1,1)"><path fill="none" stroke="#000000" d="M 398.9932493887032 281.3853152965786 L 388 281 L 395.50094213092126 289.0458602491325" stroke-miterlimit="10"/></g><g transform="translate(-94,-78) scale(1,1)"><g><path fill="none" stroke="none"/><text fill="#000000" stroke="none" font-family="Arial" font-size="13px" font-style="normal" font-weight="normal" text-decoration="none" x="412" y="332">contactOpen</text></g></g><g transform="translate(-94,-78) scale(1,1)"><path fill="none" stroke="#000000" d="M 124 181 L 327 256" stroke-miterlimit="10"/></g><g transform="translate(-94,-78) scale(1,1)"><path fill="none" stroke="#000000" d="M 316.0082771187046 256.42664751353715 L 327 256 L 318.9259928637142 248.5293635637112" stroke-miterlimit="10"/></g><g transform="translate(-94,-78) scale(1,1)"><g><path fill="none" stroke="none"/><text fill="#000000" stroke="none" font-family="Arial" font-size="13px" font-style="normal" font-weight="normal" text-decoration="none" x="161" y="220">setupContactTimer</text></g></g><g transform="translate(-94,-78) scale(1,1)"><path fill="#C0C0C0" stroke="none" d="M 329 135 L 375 135 Q 385 135 385 145 L 385 164 Q 385 174 375 174 L 329 174 Q 319 174 319 164 L 319 145 Q 319 135 329 135 Z" opacity="0.2"/></g><g transform="translate(-94,-78) scale(1,1)"><path fill="#ffffff" stroke="none" d="M 322 128 L 368 128 Q 378 128 378 138 L 378 157 Q 378 167 368 167 L 322 167 Q 312 167 312 157 L 312 138 Q 312 128 322 128 Z"/></g><g transform="translate(-94,-78) scale(1,1)"><path fill="none" stroke="#000000" d="M 322 128 L 368 128 Q 378 128 378 138 L 378 157 Q 378 167 368 167 L 322 167 Q 312 167 312 157 L 312 138 Q 312 128 322 128 Z" stroke-miterlimit="10"/></g><g transform="translate(-94,-78) scale(1,1)"><g><path fill="none" stroke="none"/><text fill="#000000" stroke="none" font-family="Arial" font-size="13px" font-style="normal" font-weight="bold" text-decoration="none" x="319.5" y="147.5">unknown</text></g></g><g transform="translate(-94,-78) scale(1,1)"><path fill="none" stroke="#000000" d="M 124 176 L 311 151" stroke-miterlimit="10"/></g><g transform="translate(-94,-78) scale(1,1)"><path fill="none" stroke="#000000" d="M 301.4847511995581 156.51906153849444 L 311 151 L 300.3691372088751 148.17426888818562" stroke-miterlimit="10"/></g><g transform="translate(-94,-78) scale(1,1)"><path fill="#C0C0C0" stroke="none" d="M 553 95 L 667 95 Q 677 95 677 105 L 677 124 Q 677 134 667 134 L 553 134 Q 543 134 543 124 L 543 105 Q 543 95 553 95 Z" opacity="0.2"/></g><g transform="translate(-94,-78) scale(1,1)"><path fill="#ffffff" stroke="none" d="M 546 88 L 660 88 Q 670 88 670 98 L 670 117 Q 670 127 660 127 L 546 127 Q 536 127 536 117 L 536 98 Q 536 88 546 88 Z"/></g><g transform="translate(-94,-78) scale(1,1)"><path fill="none" stroke="#000000" d="M 546 88 L 660 88 Q 670 88 670 98 L 670 117 Q 670 127 660 127 L 546 127 Q 536 127 536 117 L 536 98 Q 536 88 546 88 Z" stroke-miterlimit="10"/></g><g transform="translate(-94,-78) scale(1,1)"><g><path fill="none" stroke="none"/><text fill="#000000" stroke="none" font-family="Arial" font-size="13px" font-style="normal" font-weight="bold" text-decoration="none" x="544.5" y="107.5">homeContactClosed</text></g></g><g transform="translate(-94,-78) scale(1,1)"><path fill="#C0C0C0" stroke="none" d="M 497 231 L 607 231 Q 617 231 617 241 L 617 260 Q 617 270 607 270 L 497 270 Q 487 270 487 260 L 487 241 Q 487 231 497 231 Z" opacity="0.2"/></g><g transform="translate(-94,-78) scale(1,1)"><path fill="#ffffff" stroke="none" d="M 490 224 L 600 224 Q 610 224 610 234 L 610 253 Q 610 263 600 263 L 490 263 Q 480 263 480 253 L 480 234 Q 480 224 490 224 Z"/></g><g transform="translate(-94,-78) scale(1,1)"><path fill="none" stroke="#000000" d="M 490 224 L 600 224 Q 610 224 610 234 L 610 253 Q 610 263 600 263 L 490 263 Q 480 263 480 253 L 480 234 Q 480 224 490 224 Z" stroke-miterlimit="10"/></g><g transform="translate(-94,-78) scale(1,1)"><g><path fill="none" stroke="none"/><text fill="#000000" stroke="none" font-family="Arial" font-size="13px" font-style="normal" font-weight="bold" text-decoration="none" x="487.5" y="243.5">awayContactClosed</text></g></g><g transform="translate(-94,-78) scale(1,1)"><path fill="none" stroke="#000000" d="M 379 142 L 535 118" stroke-miterlimit="10"/></g><g transform="translate(-94,-78) scale(1,1)"><path fill="none" stroke="#000000" d="M 525.5955872153455 123.70587593414258 L 535 118 L 524.315412381252 115.38473951253471" stroke-miterlimit="10"/></g><g transform="translate(-94,-78) scale(1,1)"><g><path fill="none" stroke="none"/><text fill="#000000" stroke="none" font-family="Arial" font-size="13px" font-style="normal" font-weight="normal" text-decoration="none" x="416" y="122">homeContact</text></g></g><g transform="translate(-94,-78) scale(1,1)"><path fill="none" stroke="#000000" d="M 379 163 L 503 223" stroke-miterlimit="10"/></g><g transform="translate(-94,-78) scale(1,1)"><path fill="none" stroke="#000000" d="M 492.0184727471 222.36277225906684 L 503 223 L 495.68547566846354 214.78429955491552" stroke-miterlimit="10"/></g><g transform="translate(-94,-78) scale(1,1)"><g><path fill="none" stroke="none"/><text fill="#000000" stroke="none" font-family="Arial" font-size="13px" font-style="normal" font-weight="normal" text-decoration="none" x="410" y="186">awayContact</text></g></g><g transform="translate(-94,-78) scale(1,1)"><path fill="none" stroke="#000000" d="M 479 224 L 424 208 L 372 168" stroke-miterlimit="10"/></g><g transform="translate(-94,-78) scale(1,1)"><path fill="none" stroke="#000000" d="M 382.6217681594539 170.85972746373002 L 372 168 L 377.4885916117923 177.5328569756901" stroke-miterlimit="10"/></g><g transform="translate(-94,-78) scale(1,1)"><g><path fill="none" stroke="none"/><text fill="#000000" stroke="none" font-family="Arial" font-size="13px" font-style="normal" font-weight="normal" text-decoration="none" x="385" y="226">noContact</text></g></g><g transform="translate(-94,-78) scale(1,1)"><path fill="none" stroke="#000000" d="M 535 123 L 448 144 L 379 146" stroke-miterlimit="10"/></g><g transform="translate(-94,-78) scale(1,1)"><path fill="none" stroke="#000000" d="M 389.0364446275784 141.49780284332724 L 379 146 L 389.28037219488607 149.9133039154419" stroke-miterlimit="10"/></g><g transform="translate(-94,-78) scale(1,1)"><g><path fill="none" stroke="none"/><text fill="#000000" stroke="none" font-family="Arial" font-size="13px" font-style="normal" font-weight="normal" text-decoration="none" x="419" y="165">noContact</text></g></g></g></svg>